<svg xmlns="http://www.w3.org/2000/svg" xmlns:xlink="http://www.w3.org/1999/xlink" width="200" height="200" viewBox="0 0 200 200">
  <defs>
    <linearGradient id="a" x1="-291.09" y1="128.12" x2="-308.13" y2="148.43" gradientTransform="translate(419.82)" gradientUnits="userSpaceOnUse">
      <stop offset="0" stop-color="#9cc5e8"/>
      <stop offset="0.12" stop-color="#94bee1"/>
      <stop offset="0.31" stop-color="#80aacd"/>
      <stop offset="0.53" stop-color="#5e89ac"/>
      <stop offset="0.78" stop-color="#2f5c7e"/>
      <stop offset="1" stop-color="#002f51"/>
    </linearGradient>
    <linearGradient id="b" x1="-347.43" y1="145.02" x2="-356.54" y2="134.17" gradientTransform="translate(419.82)" gradientUnits="userSpaceOnUse">
      <stop offset="0" stop-color="#002f51"/>
      <stop offset="0.11" stop-color="#124063"/>
      <stop offset="1" stop-color="#9cc5e8"/>
    </linearGradient>
  </defs>
  <g style="isolation: isolate">
    <g>
      <circle cx="100" cy="100" r="100" style="fill: #ffca00"/>
      <g>
        <path d="M28.42,164.82c5,1.49,55.42,11.78,71.23,14.07,23.47,3.39,57.79-8.65,71.19-13.46s3.75-6.11-4.7-8.13-72-3.13-72-3.13-69.73,2.16-71.28,5S23.46,163.32,28.42,164.82Z" style="fill: #e7ebee;mix-blend-mode: multiply"/>
        <path d="M30.6,160.36c5.53,1.77,42,10.47,55.93,12.72s51.79-4.78,63.66-8.34,3.95-5.2-4.07-6.87c-7.77-1.61-58.12-3.58-58.12-3.58s-66.9-1.72-68.3.54S25.05,158.58,30.6,160.36Z" style="fill: #e7ebee;mix-blend-mode: multiply"/>
      </g>
      <g style="opacity: 0.4">
        <path d="M81.64,74.81c1.48,0,2.91-.07,4.33-.08,1-3.44,15-6.6,32.22-7.16,17.87-.58,32.37,1.87,32.4,5.47,0,2.06-4.74,4.06-12.16,5.49,7.28.58,12.22,2,12.23,3.77,0,2.63-10.51,5.1-23.54,5.52-10.58.34-19.56-.77-22.55-2.61a123.3,123.3,0,0,1-22.83,2.65c-17.87.58-32.38-1.87-32.41-5.47S63.77,75.39,81.64,74.81Z" style="fill: #fff;opacity: 0.5"/>
        <path d="M140.13,106.29c-1.87-.06-3.69-.09-5.48-.1-1.3-3.73-19-7.23-40.79-7.93-22.61-.74-41,1.81-41,5.7,0,2.23,6,4.41,15.4,6-9.21.57-15.46,2-15.48,4,0,2.84,13.32,5.57,29.81,6.1,13.39.44,24.74-.71,28.53-2.68a181.83,181.83,0,0,0,28.9,3c22.61.73,41-1.82,41-5.71S162.74,107,140.13,106.29Z" style="fill: #fff;opacity: 0.30000000000000004"/>
        <path d="M194.09,85.24c-4.74-3.64-35.26-6.15-68.17-5.63-18.87.3-34.39,1.54-43.35,3.22C73.25,81.47,57.69,80.7,41.31,81c-24,.38-40.65,2.83-37.17,5.48,2.78,2.15,18,3.77,36.5,4.09-9.2,1.37-13.72,3.11-11.37,4.92,4.75,3.64,35.27,6.15,68.17,5.63s55.77-3.89,51-7.53a8.47,8.47,0,0,0-1.74-.87C177.64,92,198.64,88.73,194.09,85.24Z" style="fill: #fff;opacity: 0.7000000000000001"/>
      </g>
      <g style="opacity: 0.8">
        <path d="M86,56.05A26.51,26.51,0,1,1,59.5,29.54,26.5,26.5,0,0,1,86,56.05Z" style="fill: #fffdeb;opacity: 0.2"/>
        <circle cx="59.5" cy="56.05" r="18.73" transform="translate(-21.93 63.16) rotate(-48.28)" style="fill: #fffdeb;opacity: 0.5"/>
        <path d="M66.92,55.74a7.43,7.43,0,1,1-7.72-7.11A7.42,7.42,0,0,1,66.92,55.74Z" style="fill: #fff"/>
      </g>
      <g>
        <g>
          <g>
            <g>
              <rect x="34.41" y="147.14" width="3.59" height="13.06" style="fill: #5c666e"/>
              <rect x="34.87" y="147.14" width="0.55" height="13.06" style="fill: #fff;opacity: 0.30000000000000004"/>
              <rect x="36.68" y="147.14" width="0.84" height="13.06" style="opacity: 0.5"/>
            </g>
            <g>
              <polygon points="50.54 152.49 19.15 154.68 18.87 154.22 50.35 148.15 50.94 151.34 50.54 152.49" style="fill: #131a1d"/>
              <polygon points="58.24 113.24 57.51 113.1 29.84 129.63 18.87 154.22 50.94 151.34 58.24 113.24" style="fill: #424d54"/>
              <path d="M29.59,129.44,57.51,113.1l-1.81,9.28L26.57,136.21Zm-6.66,14.94,30.38-9.72,2.29-11.78L26.41,136.56Zm-4.27,9.55,31.52-3.15,3-15.46-30.45,9.47Z" style="fill: #e5e6ec"/>
              <path d="M51.77,118.33l-.4.06.35-1.41.5-.44,3.59-2.09.46-.1L56,115.8l-.55.49Zm-.67.21.36-1.41-.39.08L47.91,119l-.45.41-.4,1.36.35,0,3.2-1.78Zm-4.27,2.39.4-1.35-.34,0-2.79,1.62-.41.38-.43,1.31.29,0,2.83-1.58Zm-3.78,2.12.43-1.3-.29,0-2.49,1.45-.38.35-.45,1.26h.25l2.52-1.4ZM39.68,125l.46-1.27h-.25L37.65,125l-.35.32-.47,1.23h.22l2.26-1.26Zm-3,1.69.48-1.22h-.22l-2,1.17-.32.31-.48,1.18.2,0,2-1.14Zm-2.72,1.53.48-1.19h-.19L32.4,128l-.3.29-.49,1.14.17,0,1.84-1Zm-2.46,1.38.48-1.14-.16,0-1.68,1-.28.27-.49,1.11.15,0,1.68-.94ZM55,118.33l.56-.49.32-1.52-.48.08-3.64,2-.51.44-.37,1.48.41,0Zm-8.14,4.34,3.24-1.73.51-.44L51,119l-.4.06-3.2,1.78-.46.41-.42,1.42Zm-3.75.73-.45,1.36H43l2.85-1.53.46-.41.42-1.41-.34,0L43.52,123Zm-3.39,1.89-.47,1.31h.25L42,125.25l.42-.38.45-1.36-.29,0-2.52,1.41ZM36.66,127l-.48,1.27.22,0L38.67,127l.38-.34.47-1.31h-.25L37,126.65Zm-2.74,1.53-.49,1.22.19,0,2-1.09.35-.32.49-1.26h-.22l-2,1.13Zm-2.48,1.37-.5,1.18.17,0,1.84-1,.33-.3.5-1.22-.2,0-1.84,1Zm-2,1-.28.27-.5,1.14.14,0,1.68-.9.3-.28.51-1.18-.17,0Zm25.07-10.39.58-.49.33-1.6-.48.07-3.71,2-.51.44-.39,1.54.42,0Zm-4.45,2.08.39-1.54-.41,0-3.24,1.72-.46.42-.44,1.47h.36L49.56,123Zm-7.58,2.69L42,126.66h.3l2.89-1.47.47-.41.43-1.47-.34,0-2.86,1.52Zm-3.43,1.82-.49,1.36.26,0,2.56-1.31.42-.37.47-1.42H42l-2.54,1.35ZM36,128.68l-.5,1.32.22,0L38,128.87l.39-.35.49-1.36h-.26l-2.27,1.21Zm-2.76,1.47-.51,1.26.19,0,2-1,.36-.33.5-1.31-.22,0-2,1.09Zm-2.49,1.32-.51,1.22.16,0,1.85-.94.33-.3.52-1.27-.19,0-1.85,1Zm-2,.93-.29.27L28,133.84l.15,0,1.68-.85.3-.28.52-1.22-.16,0Zm25.27-9.69.59-.49.35-1.68-.49,0-3.77,1.91-.53.45-.41,1.62h.43Zm-4.53,2,.41-1.61-.41,0-3.29,1.66-.47.41-.45,1.55h.35l3.33-1.6Zm-4.45,2.15.45-1.54h-.34l-2.89,1.46-.43.38-.49,1.48.3,0,2.92-1.4Zm-6.67,2.05-.51,1.42.26,0,2.58-1.25.43-.37.49-1.47-.3,0-2.56,1.3Zm-3.08,1.56-.53,1.36.22,0,2.3-1.1.4-.35.5-1.41L38,129l-2.28,1.16Zm-2.77,1.39L32,133.16l.19.05,2.06-1,.36-.32.52-1.36-.22,0-2,1Zm-2.5,1.26-.53,1.26.16.06,1.86-.89.33-.3.53-1.31-.19,0-1.85.94Zm-2.26,1.14-.54,1.22.14.06,1.69-.81.3-.28.54-1.26-.17-.05-1.67.86Zm25.45-7.74.61-.49.38-1.82-.5,0L49.86,126l-.54.45-.44,1.74.43,0Zm-4.65,1.81.45-1.73h-.42l-3.36,1.55-.48.41-.49,1.66.36,0,3.4-1.48Zm-4.55,2,.49-1.66-.35,0L41.25,130l-.44.38L40.29,132l.31.05,3-1.29Zm-4,1.73.52-1.58-.3,0-2.59,1.2-.4.35-.54,1.51.26,0,2.61-1.13ZM34.2,133.4l-.56,1.45.22.07,2.32-1,.4-.34.54-1.51-.25-.05-2.31,1.07Zm-2.79,1.28-.56,1.39.19.07,2.07-.9.36-.32.56-1.44-.22,0-2.06.95Zm-2.5,1.15-.57,1.33.16.08,1.86-.81.34-.3.56-1.38-.19-.06-1.85.86Zm-.3,0-1.68.78-.29.26-.57,1.28.14.08,1.69-.73.3-.28.57-1.32Zm24.1-6.75.62-.49.4-1.93h-.51l-3.94,1.7-.55.45-.46,1.82.43.05ZM48,130.75l.47-1.82-.42,0-3.41,1.47-.5.41-.51,1.73.37.07,3.45-1.39Zm-4.61,1.86.51-1.72-.35,0-3,1.28-.44.38-.54,1.65.3.07,3-1.2Zm-4,1.63.55-1.65-.3-.06L37,133.66l-.4.35L36,135.59l.25.07,2.64-1Zm-5.9,1.11-.58,1.51.22.08,2.33-.93.4-.35.57-1.57-.25-.06-2.32,1Zm-2.8,1.2L30.07,138l.19.09,2.07-.84.37-.32.58-1.49-.21-.07-2.08.89Zm-2.51,1.08L27.56,139l.16.09,1.86-.74.34-.3.58-1.43-.18-.08-1.86.8Zm-2,.7-.29.27-.59,1.32.14.09,1.68-.67.31-.28.59-1.37-.16-.08Zm26-6.55.63-.49.42-2-.51,0-4,1.6-.57.45-.48,1.92.44.08Zm-4.81,1.53.49-1.92-.43,0-3.45,1.37-.51.41-.53,1.82.37.09,3.49-1.28ZM42.65,135l.54-1.81-.36-.07-3,1.2-.45.38-.57,1.72.31.1,3-1.11Zm-4.06,1.5.57-1.72-.29-.07-2.64,1-.41.35-.59,1.63.26.1,2.65-1Zm-5.92.85-.6,1.56.22.1,2.34-.85.41-.35.59-1.63-.25-.08-2.33.93ZM31.9,139l.6-1.55-.21-.09-2.08.83-.34.3L29.26,140l.19.1,2.08-.76Zm-4.55.48-.6,1.43.15.1,1.87-.68.34-.29.6-1.49-.18-.09-1.86.74Zm-2,.63-.29.27-.61,1.36.14.11,1.68-.62.31-.27.61-1.42-.16-.1Zm26.15-5.47.65-.48.45-2.15-.53-.07L48,133.43l-.58.45-.51,2,.45.11ZM46.64,136l.51-2-.43-.08-3.5,1.27-.51.41-.56,1.91.37.11,3.54-1.16Zm-4.74,1.57.56-1.9-.35-.09-3,1.1-.46.38-.59,1.8.3.12,3.07-1Zm-4.1,1.36.59-1.79-.29-.1-2.66,1-.41.35-.62,1.71.26.12,2.67-.88Zm-3.58,1.19.61-1.7-.24-.11-2.35.86-.38.32-.62,1.62.21.12,2.36-.77Zm-3.15,1,.62-1.62-.21-.11-2.08.76-.35.3L28.42,142l.18.13,2.09-.69Zm-2.8.93.63-1.55-.18-.1-1.86.67-.32.29-.63,1.47.15.12,1.87-.61Zm-2.5.83.63-1.48-.15-.1-1.68.61-.3.26-.62,1.41.13.12,1.67-.55Zm24.73-3.4.68-.49.48-2.35-.54-.12-4.2,1.27-.59.44-.56,2.21.46.16Zm-5,1,.56-2.2-.44-.13L42,139.32l-.53.41-.61,2.06.37.16,3.63-.95Zm-4.84,1.29.61-2.06-.36-.13-3.09.93-.47.37-.63,1.94.3.16,3.11-.82ZM36.46,143,37.1,141l-.29-.14-2.69.81-.42.34L33,143.88l.25.16,2.71-.71Zm-3.61,1,.65-1.82-.24-.14-2.36.72-.39.31-.66,1.73.21.16,2.37-.62Zm-3.17.85.66-1.73-.2-.13-2.1.63-.35.29L27,145.49l.17.15,2.09-.55Zm-2.81.75.67-1.64-.17-.14-1.87.57-.32.28-.67,1.56.15.15,1.86-.49Zm-2.49.66.66-1.55-.14-.14-1.68.51-.3.26-.66,1.49.13.14,1.67-.44Zm25.41-3.34.7-.48.51-2.49-.54-.17-4.28,1.11-.61.44L45,143.59l.45.2Zm-5.11.81.59-2.32-.44-.17-3.62,1-.54.4L40,144.69l.37.19,3.67-.79Zm-4.91,1.08.64-2.16-.35-.17-3.12.82-.48.36-.67,2,.31.2,3.14-.68Zm-4.2.93.67-2-.29-.17-2.71.71-.43.33-.68,1.91.25.19,2.71-.59Zm-3.64.81.69-1.91-.25-.16L30,145l-.38.31-.7,1.81.21.18,2.37-.52Zm-3.18.7.69-1.79-.2-.16-2.09.54-.36.29-.69,1.71.17.17,2.09-.45Zm-2.8.62.69-1.7-.17-.15-1.86.48-.33.27-.69,1.62.14.17,1.86-.4Zm-2.49.55.69-1.61-.15-.15-1.67.43-.3.26-.68,1.54.12.16,1.66-.36Zm25.58-2,.72-.47.55-2.65-.56-.21L45.4,144l-.62.43-.63,2.47.47.24Zm-5.82,1,.62-.43.63-2.45-.44-.21-3.68.79-.54.39-.68,2.29.37.24Zm-4.35.43.67-2.28-.35-.2L36,146l-.48.36-.7,2.14.3.22,3.17-.53Zm-4.24.72.7-2.12-.29-.2-2.72.58-.43.34-.72,2,.24.21,2.74-.45Zm-3.66.63.72-2-.24-.19-2.38.51-.39.31L28,149.66l.2.21,2.38-.4Zm-3.18.55.72-1.88-.2-.18-2.1.45-.35.29-.72,1.78.16.19,2.09-.35Zm-2.81.48.72-1.77-.16-.18-1.86.4-.33.27-.72,1.69.14.18,1.86-.3Zm-2.48.43.72-1.68-.14-.17-1.67.35-.3.26L20.4,151l.12.18,1.65-.28Zm21.43-2.85-.66,2.61.47.3,4.51-.51.73-.46.58-2.83-.56-.27-4.43.73Zm-5,.8L38.19,151l.37.28,3.76-.43.64-.41.66-2.6-.45-.25-3.72.61Zm-4.29.68-.74,2.24.3.26,3.2-.36.55-.38.71-2.4-.36-.24-3.17.52Zm-3.69.58-.75,2.1.24.24,2.74-.3.49-.35.74-2.24-.29-.23-2.73.45Zm-3.22.51-.75,2,.2.23,2.38-.27.44-.32.75-2.09-.24-.21L28.1,150Zm-2.82.45-.75,1.85.16.22,2.09-.23.4-.3.75-2-.19-.21-2.1.34Zm-2.5.39-.74,1.75.13.22,1.85-.21.36-.28.75-1.85-.16-.2-1.85.31Zm-2.22.36-.74,1.66.11.2,1.65-.19.32-.26.75-1.74-.14-.19-1.65.27Z" style="fill: #007a94"/>
            </g>
          </g>
          <polygon points="42.43 121.93 29.59 129.44 18.66 153.93 42.43 121.93" style="fill: #fff;opacity: 0.4"/>
        </g>
        <g>
          <g>
            <g>
              <rect x="73.35" y="138.27" width="6.03" height="21.94" style="fill: #5c666e"/>
              <rect x="74.13" y="138.27" width="0.92" height="21.94" style="fill: #fff;opacity: 0.30000000000000004"/>
              <rect x="77.16" y="138.27" width="1.42" height="21.94" style="opacity: 0.5"/>
            </g>
            <g>
              <polygon points="100.44 147.26 47.73 150.94 47.26 150.15 100.13 139.96 101.12 145.32 100.44 147.26" style="fill: #131a1d"/>
              <polygon points="113.37 81.35 112.15 81.11 65.69 108.87 47.26 150.15 101.12 145.32 113.37 81.35" style="fill: #424d54"/>
              <path d="M65.27,108.55l46.88-27.44-3,15.57L60.2,119.91ZM54.08,133.63l51-16.31L109,97.54l-49,23Zm-7.16,16.05,52.92-5.3,5-26-51.13,15.9Z" style="fill: #e5e6ec"/>
              <path d="M102.52,89.88l-.69.11.6-2.36.83-.75,6-3.5.78-.17-.5,2.44-.93.81Zm-1.13.36.6-2.36-.66.12L96,91.07l-.76.69-.67,2.29.59-.07,5.36-3Zm-7.18,4L94.89,92l-.57.09-4.69,2.72-.7.64-.72,2.2.5,0,4.75-2.66Zm-6.34,3.56.72-2.2-.49.06-4.19,2.43-.63.59-.76,2.12H83l4.23-2.36ZM82.21,101,83,98.87l-.43,0-3.76,2.18-.58.55-.79,2.06h.38l3.78-2.11Zm-5.07,2.84.79-2h-.36l-3.4,2-.54.52-.81,2,.33,0,3.41-1.91Zm-4.57,2.57.81-2h-.32L70,106.2l-.5.48-.82,1.92.28,0,3.1-1.73Zm-4.14,2.32.82-1.92-.28,0-2.81,1.63-.47.46-.82,1.86.25,0,2.81-1.57Zm39.48-18.84,1-.82.53-2.56-.79.14-6.13,3.42-.85.75L101,93.29l.7-.08ZM94.26,97.18l5.44-2.9.85-.75.63-2.46-.67.09-5.37,3-.77.68-.7,2.38ZM88,98.4l-.76,2.29h.51l4.8-2.56.76-.68L94,95.06l-.57.06-4.75,2.65Zm-5.71,3.17-.79,2.21h.44l4.26-2.28.7-.63.75-2.29-.49,0L82.89,101Zm-5.11,2.83-.81,2.13.37,0,3.81-2,.64-.58.8-2.2h-.43l-3.79,2.12ZM72.54,107,71.71,109l.32,0,3.43-1.83.59-.55.82-2.12-.37,0-3.41,1.91Zm-4.17,2.31-.84,2,.28,0,3.1-1.65.55-.51.83-2.05-.32,0-3.09,1.72Zm-3.32,1.66-.47.45-.85,1.91.25.07,2.82-1.51.5-.47.85-2-.28-.05Zm42.1-17.46,1-.82.56-2.68-.81.12-6.23,3.32-.87.75-.65,2.59.7-.06ZM99.67,97l.66-2.58-.68.07-5.45,2.9-.78.69-.73,2.48h.59l5.52-2.81ZM86.94,101.5l-.79,2.38h.51l4.85-2.46.78-.69L93,98.27l-.58,0-4.8,2.56Zm-5.75,3-.83,2.29.44,0,4.3-2.19.7-.63.79-2.38H86.1L81.83,104ZM76,107.28l-.84,2.2.37,0,3.83-2,.65-.58.83-2.29h-.43l-3.81,2Zm-4.62,2.45-.87,2.12.33.07,3.44-1.75.6-.54.84-2.21-.36,0L72,109.22ZM67.24,112l-.88,2,.28.07,3.11-1.58.55-.51.87-2.12-.32,0-3.1,1.66Zm-3.33,1.56-.47.45-.88,2,.25.08,2.82-1.43.51-.48.87-2-.28-.06Zm42.44-16.26,1-.82.59-2.83-.82.09-6.34,3.21-.88.75-.68,2.71.71,0Zm-7.6,3.33.68-2.7-.68,0-5.52,2.8-.8.69-.76,2.6h.6l5.59-2.69Zm-7.48,3.62.77-2.59h-.59l-4.85,2.46-.72.64-.82,2.48.51,0,4.91-2.36Zm-11.19,3.44L79.22,110l.44.06L84,108l.72-.63.82-2.47-.5,0-4.3,2.19Zm-5.18,2.61L74,112.54l.37.08,3.86-1.86.66-.58.85-2.38-.42,0-3.84,1.95Zm-4.65,2.35-.89,2.19.32.09,3.46-1.66.6-.54.88-2.29-.36,0-3.45,1.75Zm-4.19,2.11-.9,2.12.27.09,3.12-1.5.56-.5.89-2.2-.31-.07-3.11,1.58Zm-3.8,1.92-.9,2,.23.1,2.83-1.36.51-.47.9-2.11-.27-.08-2.82,1.43Zm42.74-13,1-.82.64-3.06-.84,0-6.51,3-.91.76-.74,2.92.73,0Zm-7.81,3,.74-2.91h-.69l-5.65,2.61-.81.69L90,109.82l.6.07,5.72-2.48ZM89.55,110l.82-2.77-.58,0-4.94,2.28-.74.64-.87,2.65.51.09,5-2.16Zm-6.67,2.91.87-2.65-.49-.06-4.36,2-.67.59-.91,2.54.43.1,4.39-1.9ZM73,115.2l-.93,2.43.37.11,3.89-1.69.67-.57.91-2.53-.42-.09-3.88,1.8Zm-4.68,2.15-.94,2.33.31.12,3.49-1.51.61-.54.93-2.42-.36-.09-3.47,1.6Zm-4.2,1.93-1,2.23.27.13,3.12-1.35.57-.5.94-2.32-.31-.11-3.12,1.45Zm-.5,0-2.82,1.3-.49.45-1,2.15.23.13,2.83-1.23.52-.47.94-2.22Zm40.47-11.34,1-.83.66-3.23H105l-6.62,2.86-.93.76-.78,3.06.74.08Zm-7.94,2.81.78-3.06-.71,0L90.5,110.1l-.83.7-.86,2.91.62.1,5.79-2.32Zm-7.75,3.13.86-2.91-.59-.07-5,2.15-.75.63L82,116.45l.51.13,5-2Zm-6.74,2.72.91-2.76-.5-.1-4.39,1.9-.68.59-.94,2.64.42.13,4.43-1.78Zm-9.92,1.88-1,2.52.36.14,3.92-1.57.67-.58,1-2.63-.42-.11-3.9,1.68Zm-4.69,2-1,2.41.31.15,3.49-1.4.62-.54,1-2.51-.36-.12L67.62,120Zm-4.22,1.8-1,2.31.27.16,3.13-1.26.57-.5,1-2.4-.3-.13-3.13,1.35Zm-3.31,1.19-.49.44-1,2.22.22.16,2.83-1.14.52-.46,1-2.31-.27-.13Zm43.61-11,1.07-.82.7-3.41-.87-.06-6.73,2.69-1,.75-.81,3.23.74.13ZM95.05,115l.82-3.22-.71-.09L89.36,114l-.85.69-.9,3,.62.15,5.87-2.15Zm-7.86,2.9.91-3-.6-.12-5,2-.76.64-1,2.89.51.16,5.1-1.87Zm-6.81,2.52,1-2.89-.5-.13-4.43,1.77-.69.58-1,2.75.43.17,4.46-1.63Zm-9.94,1.42-1,2.62.36.17,3.94-1.44.69-.57,1-2.74-.42-.14-3.91,1.56Zm-1.29,2.72,1-2.61-.35-.14-3.5,1.38-.57.51-1,2.5.31.18,3.5-1.28Zm-7.64.81-1,2.39.26.18,3.13-1.15.58-.49,1-2.5-.3-.15L62,124.94Zm-3.31,1.06-.5.45-1,2.28.22.19,2.82-1,.53-.46,1-2.39-.26-.16Zm43.91-9.19,1.1-.82.74-3.6-.88-.11-6.86,2.49-1,.75-.86,3.4.75.18Zm-8.22,2.28.87-3.39L94,116l-5.88,2.14-.86.69-.94,3.2.61.19,6-2Zm-8,2.64.95-3.19-.6-.16-5.09,1.86-.78.63-1,3,.51.2,5.15-1.69Zm-6.88,2.28,1-3-.5-.17-4.46,1.63-.7.57-1,2.87.43.21,4.49-1.48Zm-6,2,1-2.86-.42-.17-3.94,1.43-.63.54-1,2.72.36.21,4-1.3Zm-5.29,1.76,1-2.72-.35-.18-3.5,1.28-.58.5-1,2.59.3.21,3.5-1.16Zm-4.7,1.56,1-2.59-.29-.18-3.14,1.14-.53.47-1.06,2.47.26.21,3.13-1Zm-4.2,1.39,1.06-2.47-.26-.18-2.82,1-.5.45-1,2.36.21.21,2.82-.93Zm41.52-5.71,1.14-.81.82-4-.9-.2-7.06,2.13-1,.75-.93,3.69.76.27Zm-8.44,1.75.94-3.68-.73-.23-6,1.82-.88.68-1,3.46.62.27L90.94,128ZM83.8,129.4l1-3.45-.6-.23L79,127.29l-.79.62-1.07,3.25.51.27,5.23-1.37Zm-7,1.86L77.88,128l-.49-.23-4.52,1.36-.71.57-1.1,3.08.42.27,4.54-1.2Zm-6.08,1.62,1.11-3.06-.42-.23-4,1.2-.65.53-1.11,2.91.35.26,4-1.05Zm-5.32,1.43,1.12-2.9-.35-.23-3.51,1.06-.59.49L61,135.49l.29.26,3.52-.92Zm-4.71,1.25,1.12-2.75-.29-.23-3.13.95-.54.46-1.12,2.63.24.25,3.13-.82Zm-4.19,1.12,1.12-2.62-.25-.22-2.81.85-.5.43L53,137.63l.21.24,2.8-.74Zm42.68-5.62,1.16-.8.87-4.19-.92-.28-7.17,1.87-1,.74-1,3.91.77.34Zm-8.59,1.36,1-3.89-.74-.28-6.09,1.58-.9.67-1.07,3.65.62.33,6.17-1.34Zm-8.24,1.82,1.08-3.63-.6-.28-5.23,1.36-.8.62-1.13,3.41.51.32,5.27-1.14Zm-7.06,1.57,1.13-3.41-.49-.27-4.54,1.18-.72.57-1.16,3.2.42.32,4.57-1Zm-6.1,1.35,1.15-3.2-.41-.27-4,1-.65.52-1.17,3,.35.3,4-.86Zm-5.34,1.18,1.16-3-.34-.27-3.52.92-.6.49-1.16,2.87.29.29,3.51-.76Zm-4.71,1,1.16-2.86-.28-.26-3.13.82-.55.45-1.16,2.73.24.28,3.12-.68Zm-4.19.93,1.16-2.72-.24-.25-2.8.73-.51.43-1.14,2.59.2.27,2.79-.6Zm43-3.31,1.2-.79.92-4.46-.93-.36L91.81,133l-1,.73-1,4.14.78.41Zm-9.77,1.63,1-.71,1-4.12-.74-.35-6.17,1.32-.92.66-1.13,3.84.62.4Zm-7.31.72L82,135.53l-.6-.34-5.28,1.13-.81.6-1.18,3.59.5.38,5.33-.89Zm-7.12,1.23L74.91,137l-.49-.32-4.57,1-.73.56-1.2,3.36.41.36,4.59-.76Zm-6.14,1,1.2-3.35-.4-.32-4,.86-.66.52-1.22,3.16.34.35,4-.67Zm-5.36.92,1.22-3.15-.34-.31-3.51.76-.61.48-1.21,3,.28.33,3.51-.59Zm-4.7.81,1.21-3-.28-.3-3.12.67-.55.45L53.58,144l.23.31,3.12-.51Zm-4.17.72,1.2-2.82-.23-.29-2.79.6L51,142l-1.19,2.68L50,145l2.78-.47Zm36-4.79-1.11,4.39.78.49,7.57-.85,1.23-.77,1-4.76-.94-.44-7.45,1.22Zm-8.46,1.34-1.19,4.05.62.47,6.33-.71,1.06-.7,1.11-4.37-.74-.42-6.26,1Zm-7.2,1.14-1.24,3.77.5.44,5.37-.6.93-.64,1.2-4-.6-.4-5.33.87Zm-6.2,1-1.26,3.52.41.41,4.61-.52.82-.58,1.24-3.76-.49-.38-4.59.75Zm-5.39.85-1.27,3.3.33.4,4-.46.74-.53,1.26-3.51-.4-.37-4,.66Zm-4.74.75-1.26,3.11.27.38,3.5-.4.67-.5,1.27-3.29-.33-.35-3.51.57Zm-4.2.67L51.91,148l.23.36,3.09-.35.61-.47,1.26-3.1-.27-.33-3.11.51Zm-3.73.59-1.24,2.79.18.33,2.76-.31.56-.44,1.25-2.93-.23-.32-2.77.46Z" style="fill: #007a94"/>
            </g>
          </g>
          <polygon points="86.82 95.93 65.27 108.55 46.91 149.68 86.82 95.93" style="fill: #fff;opacity: 0.4"/>
        </g>
        <g>
          <g>
            <g>
              <rect x="133.62" y="124.4" width="9.84" height="35.81" style="fill: #5c666e"/>
              <rect x="134.9" y="124.4" width="1.51" height="35.81" style="fill: #fff;opacity: 0.30000000000000004"/>
              <rect x="139.85" y="124.4" width="2.31" height="35.81" style="opacity: 0.5"/>
            </g>
            <g>
              <polygon points="177.85 139.07 91.81 145.08 91.04 143.79 177.34 127.16 178.95 135.91 177.85 139.07" style="fill: #131a1d"/>
              <polygon points="198.95 31.48 196.95 31.09 121.12 76.41 91.04 143.79 178.95 135.91 198.95 31.48" style="fill: #424d54"/>
              <path d="M120.43,75.88,197,31.09,192,56.52,112.16,94.43Zm-18.27,41L185.45,90.2l6.28-32.29-80,37.49ZM90.47,143l86.39-8.65L185.11,92l-83.46,26Z" style="fill: #e5e6ec"/>
              <path d="M181.23,45.41l-1.12.18,1-3.86,1.36-1.22,9.84-5.71,1.28-.28-.83,4-1.52,1.33ZM179.4,46l1-3.85-1.09.2-8.64,5-1.24,1.13-1.1,3.72,1-.11L178,47.2Zm-11.72,6.58,1.1-3.72-.92.13-7.67,4.45-1.13,1-1.18,3.59.82-.06,7.75-4.32Zm-10.36,5.81,1.19-3.59-.8.08-6.84,4-1,1-1.25,3.48.71,0,6.9-3.86Zm-9.23,5.18,1.25-3.47-.69,0L142.5,63.7l-.95.89L140.26,68h.62l6.18-3.45Zm-8.27,4.64,1.29-3.35h-.6L135,68.08l-.88.83-1.32,3.25.54,0,5.57-3.11Zm-7.46,4.19,1.32-3.24-.53,0-5,2.92-.82.78L126,76l.46.07,5-2.82Zm-6.76,3.79,1.33-3.13-.46,0-4.58,2.67-.77.74-1.34,3,.4.08,4.6-2.56ZM190,45.42l1.55-1.33.86-4.18-1.29.23-10,5.58-1.39,1.22-1,4,1.13-.14ZM167.75,57.33l8.88-4.74L178,51.37l1-4-1.1.16-8.76,4.88-1.26,1.13-1.15,3.88Zm-10.28,2-1.24,3.75.83,0,7.83-4.18,1.26-1.12,1.15-3.87-.94.1-7.75,4.32Zm-9.31,5.17-1.29,3.61h.7l7-3.72,1.14-1,1.23-3.73-.8,0-6.9,3.85Zm-8.34,4.63-1.34,3.48.61,0,6.23-3.32,1-.95,1.29-3.6H147l-6.18,3.44Zm-7.52,4.17-1.36,3.35.53.07,5.6-3,1-.88,1.34-3.47-.6,0-5.58,3.1Zm-6.8,3.78-1.38,3.24.46.09,5.06-2.71.89-.83,1.37-3.34-.53,0-5,2.81Zm-5.42,2.7-.77.73-1.38,3.13.4.11,4.6-2.46.82-.78,1.38-3.23-.46-.07ZM188.8,51.28l1.58-1.34.91-4.39-1.32.2-10.16,5.42-1.42,1.23-1.07,4.22,1.15-.09ZM176.58,57l1.08-4.21-1.11.11-8.89,4.74-1.28,1.12-1.19,4.06,1,0,9-4.58Zm-20.77,7.37-1.28,3.9.82,0,7.92-4,1.27-1.11,1.2-4-.94.06L157,63.34Zm-9.4,5-1.34,3.74.71.05,7-3.56,1.15-1,1.29-3.88h-.81l-7,3.71ZM138,73.81l-1.39,3.6.61.08,6.27-3.18,1.05-1,1.35-3.73-.7,0L139,72.92Zm-7.55,4-1.41,3.46.53.11,5.62-2.86,1-.89,1.38-3.59L137,74l-5.61,3Zm-6.83,3.61-1.42,3.35.46.12,5.07-2.58.9-.83L130.06,78l-.52-.08-5.06,2.7ZM118.22,84l-.78.74L116,88l.4.14L121,85.74l.83-.77,1.42-3.34-.45-.1ZM187.5,57.44l1.61-1.35.95-4.61-1.34.15-10.33,5.23L177,58.1l-1.12,4.42,1.16,0Zm-12.42,5.44,1.12-4.41-1.12.07-9,4.57-1.3,1.13-1.24,4.23,1,0,9.12-4.39Zm-12.21,5.91,1.25-4.22h-.94l-7.93,4-1.17,1-1.34,4.05.83.07,8-3.85ZM144.6,74.41l-1.39,3.89.71.09L151,75l1.17-1,1.34-4-.8,0-7,3.56Zm-8.45,4.26-1.43,3.73.6.12,6.31-3,1.07-1,1.39-3.87-.69-.07-6.26,3.18Zm-7.58,3.82-1.46,3.59.52.14,5.65-2.71,1-.88,1.44-3.73-.6-.09-5.62,2.85ZM121.72,86l-1.47,3.45.45.15,5.09-2.44.91-.83,1.46-3.58-.52-.11-5.07,2.57Zm-6.21,3.12L114,92.4l.39.17L119,90.35l.84-.77,1.47-3.45L120.9,86l-4.6,2.34Zm69.78-21.21L187,66.51l1-5-1.37,0L176,66.47l-1.48,1.23-1.21,4.77,1.18.07Zm-12.75,5,1.21-4.76-1.14,0-9.21,4.26-1.33,1.13L160.73,78l1,.11,9.33-4Zm-12.47,5.44,1.34-4.52-1-.07-8.06,3.72-1.2,1-1.43,4.33.84.14,8.14-3.52ZM149.18,83l1.42-4.32-.81-.11-7.11,3.29-1.1,1L140.1,87l.71.16L148,84Zm-16.13,3.74-1.52,4,.6.18,6.36-2.75,1.09-1,1.49-4.12-.69-.14-6.32,2.93Zm-7.63,3.5-1.55,3.8.52.2,5.68-2.46,1-.88,1.52-4-.59-.15-5.66,2.61Zm-6.87,3.16L117,97.05l.44.21,5.11-2.21.91-.82L125,90.44l-.51-.17-5.1,2.36Zm-.81,0-4.61,2.13-.8.73-1.55,3.5.38.22,4.62-2,.85-.76,1.54-3.64ZM183.8,74.89l1.71-1.35,1.09-5.27-1.4,0-10.8,4.67-1.52,1.23-1.26,5,1.19.13Zm-13,4.58,1.28-5L171,74.4l-9.33,4-1.36,1.13-1.39,4.75,1,.17,9.46-3.79Zm-12.64,5.11,1.4-4.74-1-.12-8.15,3.51-1.22,1-1.49,4.52.84.2,8.23-3.3Zm-11,4.45,1.49-4.51-.81-.15-7.17,3.09-1.11,1L138,92.73l.7.21L146,90.05ZM131,92.09l-1.58,4.12.6.23,6.39-2.56,1.11-.94,1.54-4.3-.69-.18L132,91.21Zm-7.66,3.29-1.6,3.93.51.24,5.7-2.28,1-.87,1.58-4.11L130,92.1l-5.68,2.45Zm-6.88,3-1.61,3.76.44.25,5.11-2,.93-.81,1.59-3.93-.5-.21-5.1,2.21ZM111,100.26l-.8.73-1.6,3.61.38.26,4.6-1.85.86-.77,1.6-3.76-.42-.21Zm71.19-18L184,81l1.14-5.56-1.41-.1-11,4.39-1.54,1.23-1.33,5.27,1.21.21ZM169,86.48l1.34-5.25-1.16-.15-9.47,3.78L158.37,86l-1.46,5,1,.24,9.59-3.51Zm-12.82,4.73,1.48-5-1-.19-8.23,3.29-1.24,1L145.7,95.1l.83.26,8.32-3ZM145.1,95.32l1.56-4.71-.81-.21-7.23,2.88-1.12,1-1.61,4.49.7.27,7.28-2.66Zm-16.23,2.33-1.64,4.27.59.28,6.42-2.34,1.12-.94L137,94.44l-.68-.23-6.4,2.55Zm-2.11,4.45,1.64-4.27-.58-.24-5.7,2.27-.94.83-1.65,4.08.5.28,5.71-2.09Zm-12.47,1.31-1.66,3.91.43.28,5.11-1.87.94-.81,1.66-4.07-.5-.25-5.11,2Zm-5.4,1.73-.81.73-1.65,3.74.36.29,4.6-1.69.87-.76,1.66-3.89-.42-.26Zm71.68-15,1.79-1.33,1.21-5.88-1.43-.19-11.2,4.07L169.36,88,168,93.59l1.23.29Zm-13.42,3.72,1.42-5.53-1.18-.23-9.59,3.5-1.41,1.11-1.54,5.23,1,.31,9.72-3.19Zm-13,4.31L155.71,93l-1-.25-8.32,3-1.25,1-1.63,4.94.83.32,8.4-2.75Zm-11.23,3.73L144.56,97l-.81-.28-7.29,2.65-1.14,1L133.64,105l.7.33,7.33-2.4Zm-9.81,3.26,1.68-4.67-.68-.28-6.43,2.33-1,.88-1.7,4.45.58.34,6.45-2.12ZM124.48,108l1.71-4.44-.58-.29-5.71,2.08-1,.81-1.72,4.24.49.34,5.73-1.88Zm-7.67,2.54,1.72-4.22-.49-.3-5.11,1.86-.88.77-1.72,4,.42.34,5.11-1.68ZM110,112.85l1.72-4-.42-.3-4.6,1.68-.81.72-1.71,3.87.35.33,4.6-1.51Zm67.77-9.32,1.86-1.32,1.33-6.45-1.47-.34L167.94,98.9l-1.63,1.22-1.53,6,1.24.44ZM164,106.38l1.54-6L164.3,100l-9.81,3-1.44,1.11-1.67,5.65,1,.45,9.93-2.61Zm-13.27,3.54,1.67-5.63-1-.37-8.46,2.55-1.29,1-1.74,5.31.83.45,8.53-2.24Zm-11.41,3,1.75-5.29-.81-.38-7.36,2.23-1.17.94-1.79,5,.68.44,7.41-2Zm-9.92,2.65,1.8-5-.67-.37-6.47,2-1.06.87-1.82,4.74.57.43,6.5-1.7Zm-8.69,2.32,1.82-4.73-.56-.38-5.73,1.74-1,.81-1.83,4.5.48.42,5.74-1.51ZM113,120l1.83-4.49-.48-.37-5.11,1.54-.89.76-1.82,4.28.4.41,5.11-1.34Zm-6.84,1.82,1.82-4.27-.4-.36L103,118.55l-.82.72-1.81,4.08.34.4,4.57-1.2Zm69.66-9.16,1.9-1.31,1.42-6.84-1.5-.45-11.72,3-1.66,1.21-1.62,6.38,1.26.55Zm-14,2.21,1.63-6.35L162.2,108l-9.94,2.59-1.46,1.09-1.75,6,1,.54L160.13,116Zm-13.45,3,1.76-5.92-1-.46-8.54,2.22-1.31,1-1.83,5.58.83.52,8.61-1.86Zm-11.52,2.55,1.84-5.55-.8-.45-7.42,1.92-1.17.93-1.88,5.24.68.51,7.45-1.62Zm-10,2.21,1.88-5.23-.66-.44-6.5,1.69-1.07.86-1.9,4.94.57.5,6.51-1.41Zm-8.72,1.93,1.9-4.93-.55-.44-5.74,1.49-1,.8-1.89,4.68.46.48,5.74-1.24Zm-7.68,1.7,1.9-4.67-.47-.42-5.1,1.32-.9.75L104,127.65l.39.46,5.1-1.1Zm-6.83,1.51,1.89-4.43-.39-.42-4.57,1.19-.83.71L97.84,129l.32.44,4.56-1Zm70.14-5.4L175.7,121l1.51-7.28-1.52-.58-11.94,2.55-1.69,1.19-1.71,6.76,1.26.67ZM157.8,125l1.69-1.16,1.72-6.73-1.21-.57-10.08,2.16-1.49,1.08L146.58,126l1,.65Zm-11.94,1.18,1.85-6.25-1-.55-8.62,1.84-1.32,1-1.93,5.85.82.61,8.69-1.45Zm-11.62,2,1.93-5.84-.8-.53-7.46,1.59-1.2.92-2,5.49.67.58,7.5-1.25Zm-10,1.72,2-5.47-.66-.51L119,125.3l-1.08.85-2,5.16.55.56,6.53-1.09Zm-8.74,1.5,2-5.14-.55-.51L111.17,127l-1,.79-2,4.88.46.54,5.73-1Zm-7.69,1.32,2-4.86-.45-.48-5.1,1.09-.9.74-2,4.62.37.52,5.09-.85Zm-6.8,1.17,2-4.6-.38-.47-4.55,1-.83.7-1.94,4.38.31.49,4.53-.75Zm58.75-7.81-1.81,7.16,1.27.81,12.37-1.39,2-1.27,1.6-7.76-1.54-.72-12.15,2Zm-13.81,2.18L144,134.88l1,.75,10.33-1.16,1.73-1.14,1.82-7.13-1.22-.68-10.21,1.67Zm-11.75,1.87-2,6.15.82.72,8.76-1,1.51-1,2-6.59-1-.65-8.7,1.42Zm-10.12,1.6L122,137.47l.67.67,7.52-.84,1.35-1,2-6.13-.8-.63-7.49,1.23Zm-8.81,1.4-2.07,5.39.54.64,6.54-.73,1.2-.88,2.06-5.73-.65-.6-6.53,1.07Zm-7.73,1.23-2.06,5.08.44.6,5.72-.64,1.09-.82,2.07-5.37-.53-.58-5.74.94Zm-6.85,1.08-2,4.8.36.58,5.06-.57,1-.77,2.06-5.06-.44-.54-5.08.83Zm-6.11,1-2,4.55.3.55,4.5-.51.91-.72,2-4.78-.36-.52-4.54.74Z" style="fill: #007a94"/>
            </g>
          </g>
          <polygon points="155.61 55.29 120.43 75.88 90.47 143.02 155.61 55.29" style="fill: #fff;opacity: 0.4"/>
        </g>
        <g>
          <path d="M64.86,150.53a2.75,2.75,0,0,0-3-.48,5.37,5.37,0,0,0-4.41-3.92,5.48,5.48,0,0,0,1-3.32,5.32,5.32,0,0,0-10.63-.21,5.15,5.15,0,0,0-1.93-.32,5.4,5.4,0,0,0-5.17,5.6,5.67,5.67,0,0,0,.34,1.75,5.5,5.5,0,0,0-.69,2.83,5.3,5.3,0,0,0,8,4.56.86.86,0,0,0,.13.14,3.35,3.35,0,0,0,4.74-.21,3.27,3.27,0,0,0,.58-.88,5.18,5.18,0,0,0,3.07.9,5.11,5.11,0,0,0,1.88-.42,2,2,0,0,0,.58,1,2,2,0,0,0,2.87-.14,2.08,2.08,0,0,0,.47-2,2.87,2.87,0,0,0,2.27-.91A2.79,2.79,0,0,0,64.86,150.53Z" style="fill: #8bc444"/>
          <g>
            <path d="M52,159.18c0,.4-.05.72-.05,1h3.38a50,50,0,0,0,5.64-5.31c-.69.75-3.6,2.6-4.19,3.18-.26-.16.31-1.83.34-3.08,0,0-1.32,2.33-.91,3.51a17.52,17.52,0,0,1-2.39,1.42c-.15-1.92-.27-3.25-.36-4.16,0-.23,2.24-4.29,2.12-4.14a17.25,17.25,0,0,0-2.15,2.78c-.25.45-.85-3.56-.85-3.56-.32.26.05,3-.07,3.61a9.74,9.74,0,0,0-.15,1.35c0,.55-.12,1.88-.19,2.45-.6-.14-1.75-1.48-3.18-4.09C49,154.16,50.05,158.62,52,159.18Z" style="fill: #504943"/>
            <path d="M51.53,160.2h1.52c-1.72-.81-7.26-2.22-9.28-3.89C43.77,156.31,44.56,158.33,51.53,160.2Z" style="fill: #504943"/>
          </g>
          <path d="M54.76,140.83a1,1,0,0,1-2,0,1,1,0,0,1,2,0Z" style="fill: #f9fd6f;opacity: 0.5"/>
          <path d="M52.43,140.36a.47.47,0,1,1-.46-.46A.47.47,0,0,1,52.43,140.36Z" style="fill: #f9fd6f;opacity: 0.5"/>
          <path d="M63.31,150.83a.47.47,0,1,1-.46-.46A.47.47,0,0,1,63.31,150.83Z" style="fill: #f9fd6f;opacity: 0.5"/>
          <g style="opacity: 0.5">
            <path d="M45.84,157.76a5.33,5.33,0,0,0,2.53-.74.86.86,0,0,0,.13.14,3.35,3.35,0,0,0,4.74-.21,3.27,3.27,0,0,0,.58-.88,5.18,5.18,0,0,0,3.07.9,5.11,5.11,0,0,0,1.88-.42,2,2,0,0,0,.58,1,2,2,0,0,0,2.87-.14,2.08,2.08,0,0,0,.47-2,2.87,2.87,0,0,0,2.27-.91,2.83,2.83,0,0,0,.31-3.47,6.75,6.75,0,0,1-1.38,2.31c-1,.79-2-1-3-1.93s-1.41.09-2.74.77-2.65-.54-4.66-1.18-5.52,2.22-6.66,2.6-2.85,1.42-4.95.47a4.2,4.2,0,0,1-1.52-1.16A5.37,5.37,0,0,0,45.84,157.76Z" style="fill: #34651c"/>
            <path d="M57.65,150.64a1.14,1.14,0,1,1-1.14-1.14A1.14,1.14,0,0,1,57.65,150.64Z" style="fill: #34651c"/>
            <path d="M44.73,149.34a1,1,0,1,1-1-1A1,1,0,0,1,44.73,149.34Z" style="fill: #34651c"/>
            <path d="M59,150.29a.52.52,0,1,1-.52-.52A.52.52,0,0,1,59,150.29Z" style="fill: #34651c"/>
            <circle cx="41.85" cy="149.25" r="0.52" style="fill: #34651c"/>
            <path d="M45.27,147.79a.53.53,0,1,1-.53-.54A.53.53,0,0,1,45.27,147.79Z" style="fill: #34651c"/>
          </g>
          <path d="M53,137.51a5.37,5.37,0,0,0-5.16,5.09,5.15,5.15,0,0,0-1.93-.32,5.31,5.31,0,0,0-4.62,3c2.29-1.71,5.88-1.22,7.62-.84a.33.33,0,0,0,.36-.16.35.35,0,0,0,0-.39l-.54-.62a.6.6,0,0,1-.06-.7c.77-1.29,3.66-5.29,8.85-2.8A5.28,5.28,0,0,0,53,137.51Z" style="fill: #f9fd6f;opacity: 0.5"/>
          <path d="M57.46,146.11a11,11,0,0,0-5,1.95,19.86,19.86,0,0,1,6.42-.66,9,9,0,0,1,1.82.47,5.25,5.25,0,0,0-3.22-1.74Z" style="fill: #f9fd6f;opacity: 0.5"/>
          <path d="M51.66,153.58a1,1,0,1,1-1-1A1,1,0,0,1,51.66,153.58Z" style="fill: #8bc444"/>
          <path d="M52,151.91a.47.47,0,1,1-.47-.47A.47.47,0,0,1,52,151.91Z" style="fill: #8bc444"/>
        </g>
        <g>
          <polygon points="137.79 154.87 99.62 153.56 99.62 160.2 137.79 160.2 137.79 154.87" style="fill: #30404b"/>
          <polygon points="59.18 154.95 99.62 153.56 99.62 117.42 59.18 126.36 59.18 135.48 60.11 135.74 60.11 145.32 59.18 145.72 59.18 154.95" style="fill: #f0f1f7"/>
          <polygon points="99.62 117.42 99.62 153.56 140.06 154.95 140.06 145.75 139.31 145.34 139.31 135.76 140.06 135.57 140.06 126.38 99.62 117.42" style="fill: #cbd2de"/>
          <polygon points="139.31 135.76 99.62 129.46 99.62 141.51 139.31 145.34 139.31 135.76" style="fill: #30404b"/>
          <polygon points="60.11 135.74 60.11 145.32 99.62 141.51 99.62 129.46 60.11 135.74" style="fill: #485967"/>
          <polygon points="62.09 154.85 99.62 153.56 99.62 160.2 62.09 160.2 62.09 154.85" style="fill: #485967"/>
          <polygon points="60.11 135.74 59.18 135.48 99.62 128.3 140.06 135.57 139.31 135.76 99.62 129.46 60.11 135.74" style="fill: #25343e"/>
          <polygon points="83.96 154.1 77.09 154.33 77.09 133.04 83.96 133.86 83.96 154.1" style="fill: #cbd2de"/>
          <polygon points="96.58 129.94 83.96 131.95 83.96 154.1 96.58 153.66 96.58 129.94" style="fill: #304650"/>
          <polygon points="96.58 135.18 91.46 135.85 91.46 153.26 96.58 153.07 96.58 135.18" style="fill: #152830"/>
          <polygon points="96.58 129.94 93.24 129.43 74.66 132.73 77.09 133.04 83.96 133.86 96.58 132 96.58 129.94" style="fill: #25343e"/>
          <polygon points="84.8 136.74 84.8 153.52 90.58 153.3 90.58 135.98 84.8 136.74" style="fill: #152830"/>
          <polygon points="88.26 128.68 68.98 132.02 77.09 133.04 96.58 129.94 88.26 128.68" style="fill: #25343e"/>
          <polygon points="93.24 127.83 88.26 127.02 88.26 128.68 93.24 129.43 93.24 127.83" style="fill: #cbd2de"/>
          <polygon points="68.98 130.53 88.26 127.02 88.26 128.68 68.98 132.02 68.98 130.53" style="fill: #f0f1f7"/>
          <polygon points="74.56 157.18 92.81 156.88 92.81 153.54 74.54 154.19 74.56 157.18" style="fill: #f0f1f7"/>
          <polygon points="92.81 153.54 92.81 156.88 89.45 156.82 89.45 160.2 96.58 160.2 96.58 156.94 96.58 153.66 92.81 153.54" style="fill: #cbd2de"/>
          <polygon points="71.63 157.18 89.45 156.82 89.45 160.2 71.63 160.2 71.63 157.18" style="fill: #f0f1f7"/>
          <g>
            <path d="M92.91,145.54a.77.77,0,1,1-1.54,0,.77.77,0,1,1,1.54,0Z" style="fill: #cbd2de"/>
            <path d="M90.41,145.72a.77.77,0,1,1-1.54,0,.77.77,0,1,1,1.54,0Z" style="fill: #cbd2de"/>
          </g>
          <path d="M130,144.44l7.56.73v-9.69l-7.56-1.2Zm-11.89-1.15,9.28.9V133.87l-9.28-1.48ZM104,141.93,115,143V131.91l-11-1.76Z" style="fill: url(#a)"/>
          <path d="M61.73,135.48v9.69L73.58,144V133.6Z" style="fill: url(#b)"/>
          <polygon points="140.06 126.38 140.06 154.95 115.87 154.1 128.9 123.91 140.06 126.38" style="fill: #404041;opacity: 0.1"/>
          <polygon points="59.18 126.36 79.87 122.11 59.18 154.95 59.18 126.36" style="fill: #fff;opacity: 0.2"/>
          <polygon points="77.11 133.04 83.97 133.86 83.97 145.34 77.11 133.04" style="fill: #404041;opacity: 0.1"/>
        </g>
        <g>
          <path d="M156.36,142.25a6.1,6.1,0,0,0-.41-10.1,7.74,7.74,0,0,0-7.43-7.7,7.6,7.6,0,0,0-2.79.45,7.65,7.65,0,0,0-15.29.3,7.94,7.94,0,0,0,1.42,4.76,0,0,0,0,0,0,0,7.77,7.77,0,0,0-6.61,7.54,8.88,8.88,0,0,0,.14,1.72,3.24,3.24,0,0,0,2.38,4.93,6,6,0,0,0,11.83,1,4.91,4.91,0,0,0,4.06-.47,7.49,7.49,0,0,0,4.94,2,7.4,7.4,0,0,0,3.65-.83,2.72,2.72,0,0,0,2.11,1,2.76,2.76,0,0,0,2-4.64Z" style="fill: #8bc444"/>
          <path d="M142.48,150a21.18,21.18,0,0,0,0-2.36c2.17-.74,3.43-6.76,3.43-6.76-1.64,3.52-2.95,5.32-3.63,5.51-.08-.76-.17-2.56-.21-3.31a17.43,17.43,0,0,0-.17-1.82c-.14-.82.28-4.52-.09-4.87,0,0-.68,5.41-1,4.81a23,23,0,0,0-2.45-3.76c-.14-.2,2.45,5.28,2.43,5.59-.11,1.24-.25,3-.43,5.62a21,21,0,0,1-2.72-1.91c.47-1.6-1-4.75-1-4.75,0,1.7.69,3.95.39,4.16-.66-.79-4-3.27-4.78-4.3,0,0,4.66,6.11,8,8.47-.15,2-.22,5.24-.3,5.87-.17,1.33-.43,2.86-.7,4h3.94c-.06-.57-.21-1.12-.22-1.73,0-1.22-.06-5.52-.2-6.37,4.91-2.44,9-8.32,9-8.32C148.26,147.23,144,149.89,142.48,150Z" style="fill: #493b34"/>
          <path d="M137.14,119.89c3.53-.8,5-.1,7.23,1a7.63,7.63,0,0,0-6.06-3.35,7.76,7.76,0,0,0-7.87,7.63,7.94,7.94,0,0,0,1.42,4.76,0,0,0,0,0,0,0,7.77,7.77,0,0,0-6.61,7.54,8.47,8.47,0,0,0,.05,1.13c.67-1.47,3.77-6.94,8.21-5.93,2.71.62,3.29.52,4.75-.46.54-.36,0-.56-2.22-1.26C131.16,129.49,130.47,121.41,137.14,119.89Z" style="fill: #f9fd6f;opacity: 0.5"/>
          <path d="M142.5,126.36c-.81,1.11.11,1.18,2.27.61a18.33,18.33,0,0,1,5.79-.71c.79.06,2.64.49,3.17.5a7.48,7.48,0,0,0-5.21-2.31,7.6,7.6,0,0,0-2.79.45S143.31,125.25,142.5,126.36Z" style="fill: #f9fd6f;opacity: 0.5"/>
          <g style="opacity: 0.5">
            <path d="M158.84,137.34a6.09,6.09,0,0,0-2.89-5.19,8.37,8.37,0,0,0-.32-2.08,3.44,3.44,0,0,1-1.91,1.55c-2.13.64-.81,1.75-.81,1.75s2.83,4.88-1.82,7.68a10.41,10.41,0,0,1-7.34.84c-2.94-.69-5.39-4.45-5.39-4.45a6.52,6.52,0,0,1-4.86,6.78c-2.51.68-5.09-1.83-5.09-1.83a6.74,6.74,0,0,1-1.78.18l-1.29,0a3.28,3.28,0,0,0,.42.58,3.19,3.19,0,0,0,2,1,6,6,0,0,0,11.83,1,4.91,4.91,0,0,0,4.06-.47,7.49,7.49,0,0,0,4.94,2,7.4,7.4,0,0,0,3.65-.83,2.72,2.72,0,0,0,2.11,1,2.76,2.76,0,0,0,2-4.64A6.09,6.09,0,0,0,158.84,137.34Z" style="fill: #34651c"/>
            <path d="M152.22,138.25a1.66,1.66,0,1,1-1.66-1.66A1.65,1.65,0,0,1,152.22,138.25Z" style="fill: #34651c"/>
            <path d="M148.84,139.9a1,1,0,1,1-1.05-1.05A1.05,1.05,0,0,1,148.84,139.9Z" style="fill: #34651c"/>
            <path d="M132.21,141.67a1.05,1.05,0,1,1-1.05-1.06A1,1,0,0,1,132.21,141.67Z" style="fill: #34651c"/>
            <path d="M151.61,135.57a.77.77,0,1,1-1.54,0,.77.77,0,1,1,1.54,0Z" style="fill: #34651c"/>
            <path d="M133.76,139.81A.78.78,0,1,1,133,139,.78.78,0,0,1,133.76,139.81Z" style="fill: #34651c"/>
          </g>
          <path d="M154.77,143.44a1.05,1.05,0,1,1-1.05-1.05A1.06,1.06,0,0,1,154.77,143.44Z" style="fill: #87ad54"/>
          <path d="M155.74,141.75a.68.68,0,1,1-.68-.68A.69.69,0,0,1,155.74,141.75Z" style="fill: #87ad54"/>
          <path d="M136.35,123.39a1,1,0,1,1-1-1A1,1,0,0,1,136.35,123.39Z" style="fill: #f9fd6f;opacity: 0.5"/>
          <path d="M133.54,134.8a1.72,1.72,0,1,1-1.71-1.71A1.72,1.72,0,0,1,133.54,134.8Z" style="fill: #f9fd6f;opacity: 0.5"/>
          <path d="M136.92,121.48a.5.5,0,1,1-.5-.49A.49.49,0,0,1,136.92,121.48Z" style="fill: #f9fd6f;opacity: 0.5"/>
          <path d="M142.36,128.12a.5.5,0,0,1-.5.49.49.49,0,0,1-.49-.49.5.5,0,0,1,.49-.5A.51.51,0,0,1,142.36,128.12Z" style="fill: #f9fd6f;opacity: 0.5"/>
          <path d="M140.6,151.12v-.74l-.37.1c-.15,2-.21,5.1-.29,5.71-.17,1.33-.43,2.86-.7,4h.87l.49-2.81Z" style="fill: #a86f41;opacity: 0.5"/>
        </g>
        <g>
          <path d="M170.57,150.53a2.77,2.77,0,0,0-3-.48,5.36,5.36,0,0,0-4.4-3.92,5.47,5.47,0,0,0,1-3.32,5.31,5.31,0,0,0-10.62-.21,5.15,5.15,0,0,0-1.93-.32,5.39,5.39,0,0,0-5.17,5.6,5.67,5.67,0,0,0,.34,1.75,5.5,5.5,0,0,0-.69,2.83,5.38,5.38,0,0,0,5.47,5.3,5.26,5.26,0,0,0,2.52-.74l.13.14A3.37,3.37,0,0,0,159,157a3.27,3.27,0,0,0,.58-.88,5.18,5.18,0,0,0,3.07.9,5.11,5.11,0,0,0,1.88-.42,2,2,0,0,0,3.45.87,2.08,2.08,0,0,0,.47-2,2.87,2.87,0,0,0,2.26-.91A2.79,2.79,0,0,0,170.57,150.53Z" style="fill: #8bc444"/>
          <g>
            <path d="M157.67,159.18c0,.4,0,.72,0,1H161a49.52,49.52,0,0,0,5.65-5.31c-.69.75-3.61,2.6-4.19,3.18-.27-.16.3-1.83.34-3.08,0,0-1.32,2.33-.91,3.51a18.15,18.15,0,0,1-2.39,1.42c-.15-1.92-.27-3.25-.37-4.16,0-.23,2.25-4.29,2.13-4.14a17.25,17.25,0,0,0-2.15,2.78c-.25.45-.85-3.56-.85-3.56-.32.26.05,3-.08,3.61-.07.38-.11.85-.15,1.35s-.11,1.88-.18,2.45c-.6-.14-1.75-1.48-3.18-4.09C154.66,154.16,155.76,158.62,157.67,159.18Z" style="fill: #504943"/>
            <path d="M157.24,160.2h1.51c-1.72-.81-7.26-2.22-9.27-3.89C149.48,156.31,150.27,158.33,157.24,160.2Z" style="fill: #504943"/>
          </g>
          <path d="M160.46,140.83a1,1,0,1,1-1-1A1,1,0,0,1,160.46,140.83Z" style="fill: #f9fd6f;opacity: 0.5"/>
          <path d="M158.14,140.36a.47.47,0,1,1-.47-.46A.47.47,0,0,1,158.14,140.36Z" style="fill: #f9fd6f;opacity: 0.5"/>
          <path d="M169,150.83a.47.47,0,1,1-.47-.46A.47.47,0,0,1,169,150.83Z" style="fill: #f9fd6f;opacity: 0.5"/>
          <g style="opacity: 0.5">
            <path d="M151.55,157.76a5.26,5.26,0,0,0,2.52-.74l.13.14A3.37,3.37,0,0,0,159,157a3.27,3.27,0,0,0,.58-.88,5.18,5.18,0,0,0,3.07.9,5.11,5.11,0,0,0,1.88-.42,2,2,0,0,0,3.45.87,2.08,2.08,0,0,0,.47-2,2.87,2.87,0,0,0,2.26-.91A2.8,2.8,0,0,0,171,151a6.73,6.73,0,0,1-1.37,2.31c-.95.79-2-1-3-1.93s-1.41.09-2.75.77-2.64-.54-4.66-1.18-5.51,2.22-6.66,2.6-2.85,1.42-4.94.47a4.11,4.11,0,0,1-1.52-1.16A5.37,5.37,0,0,0,151.55,157.76Z" style="fill: #34651c"/>
            <path d="M163.35,150.64a1.14,1.14,0,1,1-1.14-1.14A1.14,1.14,0,0,1,163.35,150.64Z" style="fill: #34651c"/>
            <path d="M150.43,149.34a1,1,0,0,1-1.91,0,1,1,0,1,1,1.91,0Z" style="fill: #34651c"/>
            <path d="M164.74,150.29a.52.52,0,0,1-.52.53.53.53,0,1,1,0-1A.52.52,0,0,1,164.74,150.29Z" style="fill: #34651c"/>
            <path d="M148.08,149.25a.52.52,0,1,1-.52-.52A.52.52,0,0,1,148.08,149.25Z" style="fill: #34651c"/>
            <path d="M151,147.79a.54.54,0,1,1-.53-.54A.53.53,0,0,1,151,147.79Z" style="fill: #34651c"/>
          </g>
          <path d="M158.68,137.51a5.37,5.37,0,0,0-5.15,5.09,5.15,5.15,0,0,0-1.93-.32,5.32,5.32,0,0,0-4.63,3c2.3-1.71,5.89-1.22,7.63-.84a.33.33,0,0,0,.32-.55l-.53-.62a.59.59,0,0,1-.06-.7c.76-1.29,3.66-5.29,8.84-2.8A5.26,5.26,0,0,0,158.68,137.51Z" style="fill: #f9fd6f;opacity: 0.5"/>
          <path d="M163.17,146.11a10.89,10.89,0,0,0-5,1.95,19.86,19.86,0,0,1,6.42-.66,9,9,0,0,1,1.82.47,5.25,5.25,0,0,0-3.22-1.74Z" style="fill: #f9fd6f;opacity: 0.5"/>
          <path d="M157.37,153.58a1,1,0,1,1-1-1A1,1,0,0,1,157.37,153.58Z" style="fill: #8bc444"/>
          <path d="M157.67,151.91a.46.46,0,0,1-.46.47.47.47,0,0,1,0-.94A.46.46,0,0,1,157.67,151.91Z" style="fill: #8bc444"/>
        </g>
      </g>
      <rect width="200" height="200" style="fill: none"/>
    </g>
  </g>
</svg>
