<svg xmlns="http://www.w3.org/2000/svg" xmlns:xlink="http://www.w3.org/1999/xlink" width="200" height="200" viewBox="0 0 200 200">
  <defs>
    <linearGradient id="a" x1="479.3" y1="129.12" x2="495.03" y2="129.12" gradientTransform="translate(-419.82)" gradientUnits="userSpaceOnUse">
      <stop offset="0" stop-color="#5c5d60"/>
      <stop offset="1" stop-color="#353435"/>
    </linearGradient>
    <linearGradient id="b" x1="499.69" y1="159.61" x2="495.91" y2="120.45" gradientTransform="translate(-419.82)" gradientUnits="userSpaceOnUse">
      <stop offset="0" stop-color="#00548c"/>
      <stop offset="0.08" stop-color="#06588f"/>
      <stop offset="0.19" stop-color="#166599"/>
      <stop offset="0.31" stop-color="#317aa9"/>
      <stop offset="0.44" stop-color="#5697c0"/>
      <stop offset="0.57" stop-color="#86bbdd"/>
      <stop offset="0.62" stop-color="#99cae8"/>
      <stop offset="1" stop-color="#005a95"/>
    </linearGradient>
    <linearGradient id="c" x1="522.14" y1="157.91" x2="518.99" y2="125.27" gradientTransform="translate(-419.82)" gradientUnits="userSpaceOnUse">
      <stop offset="0.62" stop-color="#92c8e7"/>
      <stop offset="1" stop-color="#00548c"/>
    </linearGradient>
  </defs>
  <g style="isolation: isolate">
    <g>
      <path d="M200,100A100,100,0,1,0,100,200,100,100,0,0,0,200,100Z" style="fill: #0067cd"/>
      <g>
        <path d="M30.8,164.48c4.82,1.53,53.77,12.06,69.1,14.4C122.67,182.35,156,170,169,165.1s3.64-6.25-4.56-8.31-69.81-3.21-69.81-3.21S27,155.8,25.45,158.65,26,162.94,30.8,164.48Z" style="fill: #e7ebee;mix-blend-mode: multiply"/>
        <path d="M32.91,159.91c5.37,1.82,40.72,10.71,54.27,13s50.24-4.89,61.76-8.53,3.83-5.32-3.95-7c-7.54-1.65-56.39-3.67-56.39-3.67s-64.9-1.75-66.25.56S27.54,158.1,32.91,159.91Z" style="fill: #e7ebee;mix-blend-mode: multiply"/>
      </g>
      <g style="opacity: 0.2">
        <path d="M126.91,87.77c-1.29,0-2.54.07-3.78.08C122.24,91.29,110,94.45,95,95c-15.61.58-28.28-1.86-28.31-5.47,0-2.06,4.14-4.05,10.63-5.49-6.37-.57-10.68-2-10.69-3.77,0-2.62,9.19-5.09,20.57-5.52,9.24-.34,17.08.77,19.7,2.61a94.81,94.81,0,0,1,19.94-2.64c15.62-.59,28.29,1.87,28.32,5.47S142.52,87.19,126.91,87.77Z" style="fill: #fff;opacity: 0.5"/>
        <path d="M90.29,53c-1.64-.06-3.23-.09-4.79-.1-1.13-3.73-16.62-7.23-35.63-7.93-19.76-.74-35.8,1.81-35.83,5.7,0,2.23,5.25,4.41,13.46,6-8,.57-13.51,2-13.53,4,0,2.84,11.64,5.57,26,6.1,11.7.44,21.63-.71,24.93-2.68a139.58,139.58,0,0,0,25.25,3C110,67.78,126,65.23,126,61.34S110.05,53.7,90.29,53Z" style="fill: #fff;opacity: 0.30000000000000004"/>
        <path d="M28.67,77.35C32.81,81,59.47,83.5,88.22,83c16.49-.3,30.05-1.54,37.87-3.22,8.15,1.36,21.75,2.14,36.06,1.87,21-.38,35.51-2.83,32.48-5.48-2.43-2.15-15.75-3.77-31.89-4.09,8-1.36,12-3.11,9.93-4.92-4.15-3.64-30.82-6.15-59.57-5.63S64.38,65.4,68.52,69A6.78,6.78,0,0,0,70,69.9C43,70.61,24.69,73.85,28.67,77.35Z" style="fill: #fff;opacity: 0.7000000000000001"/>
      </g>
      <g style="opacity: 0.4">
        <path d="M72.54,65.27A26.51,26.51,0,1,1,46,38.76,26.5,26.5,0,0,1,72.54,65.27Z" style="fill: #fffdeb;opacity: 0.2"/>
        <circle cx="46.03" cy="65.27" r="18.73" transform="translate(-32.67 51.67) rotate(-45)" style="fill: #fffdeb;opacity: 0.5"/>
        <path d="M53.45,65a7.43,7.43,0,1,1-7.73-7.11A7.42,7.42,0,0,1,53.45,65Z" style="fill: #fff"/>
      </g>
      <g>
        <path d="M8.22,157S20,142.8,24.08,139.59c4.85-3.8,12.5-7.7,17.87-11a29.41,29.41,0,0,1,12-3.73L50.41,160.2H5.75Z" style="fill: #abc283"/>
        <path d="M56.4,160.2h93.39L169.92,28s-17.71,30.11-52.33,45.16C84.35,87.57,62.94,89,62.94,89l-.1,5.7.8,2.84Z" style="fill: #f0f1f7"/>
        <path d="M56.4,160.2h93.39L169,43.58l-1-3.09s-15.8,25.15-50.42,39.09C84.35,93,62.84,94.72,62.84,94.72l.8,2.84Z" style="fill: #aeb4be"/>
        <polygon points="65.25 160.2 20.17 160.2 21.78 141.22 47.54 136.48 53.98 97.38 63.64 97.56 65.25 160.2" style="fill: #aeb4be"/>
        <path d="M56.4,160.2h93.39L169.92,43.46S152.21,70,117.59,83.33C84.35,96.08,63.64,97.56,63.64,97.56Z" style="fill: #eaebf1"/>
        <polygon points="53.98 97.38 49.13 100.06 41.62 137.57 47.54 136.48 53.98 97.38" style="fill: #f0f1f7"/>
        <polygon points="168.96 43.58 168.01 40.49 169.92 27.96 175.02 30.44 177.87 160.2 171.66 160.2 168.96 43.58" style="fill: #bac0cb"/>
        <path d="M63.64,97.56,56.4,160.2h.88L100,89.46C77.21,96.59,63.64,97.56,63.64,97.56Z" style="fill: #070041;opacity: 0.1"/>
        <g>
          <polygon points="55 160.2 55 117.78 115.48 106.11 115.48 160.2 55 160.2" style="fill: #cbd2de"/>
          <polygon points="115.48 106.11 129.39 107.69 122.43 160.2 115.48 160.2 115.48 106.11" style="fill: #a8b2be"/>
          <polygon points="59.48 121.77 110.18 112.43 110.18 130.81 59.48 136.48 59.48 121.77" style="fill: #3b3a3c"/>
          <polygon points="59.48 121.77 75.2 123.19 110.18 118.07 110.18 112.43 59.48 121.77" style="fill: #434345"/>
          <polygon points="75.2 123.19 75.2 134.72 59.48 136.48 59.48 121.77 75.2 123.19" style="fill: url(#a)"/>
          <polygon points="110.18 127.26 115.48 133.63 115.48 160.2 96.89 160.2 110.18 127.26" style="fill: #070041;opacity: 0.30000000000000004"/>
          <path d="M75.2,126.35l35-5.53v10a49.21,49.21,0,0,0-5.47,12.94,99.7,99.7,0,0,0-2,16.45H45.87S49.59,145,57.36,137.57A60,60,0,0,1,75.2,126.35Z" style="fill: url(#b)"/>
          <path d="M93,127.22s-.38.34-1,.95l-1.15,1.07c-.44.42-.93.89-1.47,1.39s-1.11,1.07-1.71,1.66-1.21,1.21-1.83,1.86c-.32.33-.63.67-.94,1s-.64.69-.94,1c-.64.7-1.24,1.43-1.86,2.16s-1.18,1.48-1.72,2.24l-.21.28L80,141l-.06.07,0,0h0s0,0,0,0c-.14.19-.27.39-.4.59l-.79,1.15c-.5.75-1,1.47-1.43,2.16L76,147c-.82,1.22-1.53,2.23-2,2.93-.25.36-.47.63-.61.82l-.22.29s0-.12.07-.35.11-.56.22-1,.23-.92.41-1.49.37-1.22.62-1.91.53-1.44.87-2.23.71-1.6,1.13-2.45c.21-.42.43-.82.66-1.24.12-.2.23-.41.35-.62l.21-.34.21-.31c.28-.42.54-.86.85-1.26s.61-.81.92-1.22c.67-.78,1.33-1.57,2.06-2.27l.53-.54.55-.5c.37-.33.73-.67,1.11-1,.74-.62,1.49-1.17,2.22-1.68l1.08-.72,1-.62c.68-.38,1.31-.71,1.88-1s1.09-.48,1.51-.65.77-.28,1-.36Z" style="fill: #fff;opacity: 0.2"/>
          <path d="M83.24,131.1l-.92.86L80,134.2c-1,.91-2,2-3.17,3.15-.57.58-1.14,1.19-1.7,1.81s-1.13,1.27-1.68,1.91-1.08,1.31-1.57,2l-.38.49v0h0s0,0,0,0l0,0,0,.07-.09.13-.19.26-.72,1c-.44.67-.9,1.28-1.32,1.91l-1.22,1.75c-.77,1.08-1.44,2-1.92,2.6-.24.31-.45.55-.58.72l-.21.25.06-.31c0-.21.09-.51.18-.89s.2-.83.36-1.35.33-1.1.55-1.72.47-1.3.77-2,.65-1.45,1-2.21c.19-.38.39-.73.6-1.11l.15-.27.08-.14,0-.07,0,0,0-.06c.13-.19.25-.38.37-.57.26-.37.49-.76.78-1.12l.85-1.1c.61-.69,1.22-1.39,1.88-2,.32-.32.65-.63,1-.92s.66-.59,1-.85c.68-.55,1.37-1,2-1.49l1-.62,1-.54a22.33,22.33,0,0,1,3.1-1.4c.38-.15.7-.23.91-.3Z" style="fill: #fff;opacity: 0.2"/>
          <path d="M101,140.11a142.06,142.06,0,0,0-9.27,20.09h11a99.7,99.7,0,0,1,2-16.45,49.21,49.21,0,0,1,5.47-12.94v-3.55C106.74,130.62,104.37,134.26,101,140.11Z" style="opacity: 0.6000000000000001;mix-blend-mode: multiply;fill: url(#c)"/>
        </g>
        <polygon points="160.67 42.28 155.56 47.98 148.04 117.93 153.95 115.86 160.67 42.28" style="fill: #f0f1f7"/>
        <path d="M146.84,160.2s6.34-19.69,11.87-30.72,7.77-29.27,7.66-37.64.76-31.76.76-31.76S176,59.68,181.85,71c1.83,3.51,5.86,14,6,33,.19,20.3,7.29,56.26,7.29,56.26Z" style="fill: #abc283"/>
        <polygon points="59.48 121.77 66.69 130.6 110.18 124.45 110.18 112.43 59.48 121.77" style="fill: #121b21;opacity: 0.5"/>
        <g>
          <g>
            <path d="M77.83,144.45a.64.64,0,1,0-.62-.64A.64.64,0,0,0,77.83,144.45Z" style="fill: #fff"/>
            <path d="M67.12,143a.64.64,0,0,0,.63-.64.63.63,0,0,0-1.25,0A.63.63,0,0,0,67.12,143Z" style="fill: #fff"/>
            <path d="M104.59,154a.63.63,0,0,0,0-1.26.63.63,0,1,0,0,1.26Z" style="fill: #fff"/>
            <path d="M70.18,148.9a1,1,0,1,0-1-1A1,1,0,0,0,70.18,148.9Z" style="fill: #fff"/>
            <path d="M92.19,150.9h.26a1,1,0,1,0,0-1.93h-.26a1,1,0,0,0,0,1.93Z" style="fill: #fff"/>
            <path d="M86.11,147.93a.63.63,0,0,0,0-1.25.63.63,0,1,0,0,1.25Z" style="fill: #fff"/>
            <path d="M80.21,150.58A2.25,2.25,0,1,0,78,148.34,2.25,2.25,0,0,0,80.21,150.58Z" style="fill: #fff"/>
            <path d="M75.72,148.77a1,1,0,1,0-1-1A1,1,0,0,0,75.72,148.77Z" style="fill: #fff"/>
            <path d="M50.07,149.41a1.29,1.29,0,1,0,0-2.58,1.29,1.29,0,1,0,0,2.58Z" style="fill: #fff"/>
            <path d="M67.12,149.68a.63.63,0,1,0-.62-.63A.63.63,0,0,0,67.12,149.68Z" style="fill: #fff"/>
            <path d="M40.08,159.13h.11A5.59,5.59,0,0,0,40,160.2h70a3.26,3.26,0,0,0-1.69-6,3.3,3.3,0,0,0-2.84,1.65,4.84,4.84,0,0,0-2.89-1.34A3.25,3.25,0,0,0,98,153a4.94,4.94,0,0,0-5.7-.62,4.79,4.79,0,0,0-1.68-.58,1.27,1.27,0,0,0,0-.28,2.26,2.26,0,0,0-2.24-2.25,2.29,2.29,0,0,0-1.16.32,1.36,1.36,0,1,0-1.34,1.6,1.33,1.33,0,0,0,.28,0,2.19,2.19,0,0,0,0,.36,2.25,2.25,0,0,0,.51,1.43,5,5,0,0,0-.51.52,6.85,6.85,0,0,0-3.06,2,4.26,4.26,0,0,0-.62-.26A1.77,1.77,0,1,0,80,153a3.21,3.21,0,0,0-1.76-.51H78a1,1,0,0,0,.2-.59,1,1,0,1,0-1.37.88,3.29,3.29,0,0,0-1.47,1.34,6.57,6.57,0,0,0-2.49-.71,1.93,1.93,0,0,0-1.09-3.53A1.91,1.91,0,0,0,70,151.1a4.9,4.9,0,0,0-4.63-.17,1.55,1.55,0,0,0,0-.22,3.29,3.29,0,0,0-1.06-2.41,1.93,1.93,0,1,0-2.2-1.92,2,2,0,0,0,.31,1.06,2,2,0,0,0-.35,0,3.3,3.3,0,0,0-3.29,3.29,3.55,3.55,0,0,0,.08.73l-.27,0a2.4,2.4,0,0,0-2.34,1.87A5,5,0,0,0,50.67,152a2.25,2.25,0,1,0-3.07,2.33,6.54,6.54,0,0,0-.89-.07,6.83,6.83,0,0,0-3.45.94,3.26,3.26,0,1,0-3.18,4Z" style="fill: #fff"/>
            <path d="M42.7,149.68a.63.63,0,1,0-.63-.63A.63.63,0,0,0,42.7,149.68Z" style="fill: #fff"/>
            <path d="M53,146.71a.64.64,0,0,0,.64-.63.65.65,0,0,0-.64-.63.63.63,0,0,0-.62.63A.63.63,0,0,0,53,146.71Z" style="fill: #fff"/>
            <path d="M59.45,146.38a1.29,1.29,0,1,0-1.29-1.29A1.29,1.29,0,0,0,59.45,146.38Z" style="fill: #fff"/>
            <path d="M56,151.55A1.94,1.94,0,1,0,54,149.62,1.94,1.94,0,0,0,56,151.55Z" style="fill: #fff"/>
          </g>
          <path d="M96.65,149.76a1.65,1.65,0,1,0,1.65,1.65A1.65,1.65,0,0,0,96.65,149.76Z" style="fill: #fff;fill-rule: evenodd"/>
          <path d="M89.25,141.69a1.65,1.65,0,1,0,1.65,1.65A1.65,1.65,0,0,0,89.25,141.69Z" style="fill: #fff;fill-rule: evenodd"/>
          <path d="M98.05,144.31A1.65,1.65,0,1,0,99.7,146,1.65,1.65,0,0,0,98.05,144.31Z" style="fill: #fff;fill-rule: evenodd"/>
          <path d="M100.37,151.42a1.65,1.65,0,1,0,1.65,1.64A1.65,1.65,0,0,0,100.37,151.42Z" style="fill: #fff;fill-rule: evenodd"/>
          <path d="M83.07,129.65a.54.54,0,0,0-.54.53.54.54,0,0,0,.54.53.53.53,0,0,0,.53-.53A.52.52,0,0,0,83.07,129.65Z" style="fill: #fff;fill-rule: evenodd"/>
          <path d="M63.59,130.42a.53.53,0,0,0-.53.53.54.54,0,1,0,1.07,0A.53.53,0,0,0,63.59,130.42Z" style="fill: #fff;fill-rule: evenodd"/>
          <path d="M68.93,133.9a.54.54,0,0,0,0,1.07.54.54,0,0,0,0-1.07Z" style="fill: #fff;fill-rule: evenodd"/>
          <path d="M55.53,133.61a.63.63,0,0,0-.63.63.64.64,0,0,0,.63.64.63.63,0,0,0,.63-.64A.62.62,0,0,0,55.53,133.61Z" style="fill: #fff;fill-rule: evenodd"/>
          <path d="M61.54,137.12a.64.64,0,0,0-.64.63.65.65,0,0,0,.64.64.63.63,0,0,0,.63-.64A.62.62,0,0,0,61.54,137.12Z" style="fill: #fff;fill-rule: evenodd"/>
          <path d="M60.63,140.22a.31.31,0,0,0-.32.31.32.32,0,0,0,.32.32.32.32,0,0,0,.32-.32A.31.31,0,0,0,60.63,140.22Z" style="fill: #fff;fill-rule: evenodd"/>
          <path d="M78.19,140a.67.67,0,1,0,0,1.33.67.67,0,1,0,0-1.33Z" style="fill: #fff;fill-rule: evenodd"/>
          <path d="M89.94,137.61a.53.53,0,0,0-.54.53.54.54,0,0,0,.54.54.54.54,0,0,0,.53-.54A.52.52,0,0,0,89.94,137.61Z" style="fill: #fff;fill-rule: evenodd"/>
          <path d="M95.42,141.45a.93.93,0,0,0,.93-.92.93.93,0,0,0-1.85,0A.93.93,0,0,0,95.42,141.45Z" style="fill: #fff;fill-rule: evenodd"/>
          <path d="M55,139.44a.92.92,0,1,0-.92-.92A.93.93,0,0,0,55,139.44Z" style="fill: #fff;fill-rule: evenodd"/>
          <path d="M71.7,141.14a.92.92,0,1,0-.92-.92A.93.93,0,0,0,71.7,141.14Z" style="fill: #fff;fill-rule: evenodd"/>
          <path d="M81,143.31a.93.93,0,1,0-.92-.93A.93.93,0,0,0,81,143.31Z" style="fill: #fff;fill-rule: evenodd"/>
          <path d="M74.48,137a.92.92,0,1,0-.92-.92A.92.92,0,0,0,74.48,137Z" style="fill: #fff;fill-rule: evenodd"/>
          <path d="M56.28,142.23a.41.41,0,0,0,.41-.42.42.42,0,1,0-.83,0A.42.42,0,0,0,56.28,142.23Z" style="fill: #fff;fill-rule: evenodd"/>
          <path d="M79.86,139.55a.41.41,0,0,0,.41-.42.42.42,0,1,0-.41.42Z" style="fill: #fff;fill-rule: evenodd"/>
          <path d="M58.12,131.26a.41.41,0,0,0,.41-.41.42.42,0,1,0-.83,0A.41.41,0,0,0,58.12,131.26Z" style="fill: #fff;fill-rule: evenodd"/>
          <path d="M62.06,140.09a.41.41,0,0,0,.42-.41.42.42,0,1,0-.83,0A.41.41,0,0,0,62.06,140.09Z" style="fill: #fff;fill-rule: evenodd"/>
          <path d="M83.71,136.41a.51.51,0,0,0,.51-.51.51.51,0,1,0-1,0A.51.51,0,0,0,83.71,136.41Z" style="fill: #fff;fill-rule: evenodd"/>
          <path d="M75.11,131.51a.51.51,0,0,0,.51-.51.51.51,0,0,0-1,0A.51.51,0,0,0,75.11,131.51Z" style="fill: #fff;fill-rule: evenodd"/>
        </g>
        <g>
          <path d="M8.85,146.31A6.56,6.56,0,0,1,5.52,136a8.31,8.31,0,0,1,4.63-10.52,8,8,0,0,1,3-.57,8.22,8.22,0,0,1,15.53-5.38,8.5,8.5,0,0,1,.34,5.32l0,0a8.47,8.47,0,0,1,10,6.93A3.45,3.45,0,0,1,40,135.87a3.51,3.51,0,0,1-1.64,1.77A6.5,6.5,0,0,1,26.83,143a5.24,5.24,0,0,1-4.26,1,8.07,8.07,0,0,1-8.21,4.41,3,3,0,1,1-5.51-2.14Z" style="fill: #8bc444"/>
          <path d="M21.62,149.25a25,25,0,0,1,.05-2.54c-2.34-.8-3.69-7.27-3.69-7.27,1.76,3.79,3.17,5.72,3.9,5.93.08-.82.18-2.75.22-3.56a17.15,17.15,0,0,1,.19-2c.15-.88-.3-4.85.09-5.23,0,0,.74,5.82,1,5.17a24.29,24.29,0,0,1,2.64-4c.14-.21-2.64,5.67-2.61,6,.12,1.32.27,3.25.45,6a21,21,0,0,0,2.93-2c-.5-1.72,1.12-5.1,1.12-5.1-.05,1.82-.75,4.24-.42,4.47.71-.85,4.28-3.52,5.13-4.62,0,0-5,6.56-8.63,9.09.17,2.13.24,5.64.33,6.32.18,1.42.46,3.06.75,4.3H20.88c.07-.61.22-1.2.24-1.86,0-1.31.06-5.92.21-6.84-5.27-2.62-9.7-8.94-9.7-8.94C15.42,146.27,20.05,149.12,21.62,149.25Z" style="fill: #493b34"/>
          <path d="M19.92,116.64c-3.85.5-5,1.73-6.9,3.71a8.13,8.13,0,0,1,4.86-5.61,8.33,8.33,0,0,1,10.77,4.76,8.5,8.5,0,0,1,.34,5.32l0,0A8.36,8.36,0,0,1,38.47,130a9.76,9.76,0,0,1,.37,1.16c-5.22-6-15.67-2.19-13.67-3.73C29.52,124.1,27.21,115.69,19.92,116.64Z" style="fill: #f9fd6f;opacity: 0.5"/>
          <path d="M14.86,126.6A19.91,19.91,0,0,0,8.76,128c-.76.35-2.48,1.47-3,1.68a8.08,8.08,0,0,1,4.4-4.27,8,8,0,0,1,3-.57S17.25,126.38,14.86,126.6Z" style="fill: #f9fd6f;opacity: 0.5"/>
          <path d="M29.56,130.45a1.13,1.13,0,1,0,1.13-1.13A1.14,1.14,0,0,0,29.56,130.45Z" style="fill: #f9fd6f;opacity: 0.5"/>
          <path d="M31.23,132.92a1.85,1.85,0,1,0,1.84-1.84A1.84,1.84,0,0,0,31.23,132.92Z" style="fill: #f9fd6f;opacity: 0.5"/>
          <path d="M32.54,129.72a.54.54,0,1,0,.53-.53A.53.53,0,0,0,32.54,129.72Z" style="fill: #f9fd6f;opacity: 0.5"/>
          <g style="opacity: 0.5">
            <path d="M4.53,142.28a6.57,6.57,0,0,1,1-6.31,5.28,5.28,0,0,0,3.51.11s-1,5.65,4.69,7.06c5.21,1.3,8.42-5.68,8.42-5.68a18.61,18.61,0,0,0,10.48,2.35c2.8-.25,2.83-3.35,4.06-5.19s.82,1.46,2.26,1l1.31-.46a3.89,3.89,0,0,1-.21.74,3.51,3.51,0,0,1-1.64,1.77A6.5,6.5,0,0,1,26.83,143a5.24,5.24,0,0,1-4.26,1,8.07,8.07,0,0,1-8.21,4.41,3,3,0,1,1-5.51-2.14A6.56,6.56,0,0,1,4.53,142.28Z" style="fill: #34651c"/>
            <path d="M9.85,137.58a1.78,1.78,0,1,0,1.78-1.78A1.78,1.78,0,0,0,9.85,137.58Z" style="fill: #34651c"/>
            <path d="M8.24,133.16A1.13,1.13,0,1,0,9.37,132,1.13,1.13,0,0,0,8.24,133.16Z" style="fill: #34651c"/>
            <path d="M10.5,134.71a.83.83,0,1,0,.83-.83A.83.83,0,0,0,10.5,134.71Z" style="fill: #34651c"/>
            <path d="M21,119.14a1.2,1.2,0,0,0,2.39,0,1.2,1.2,0,1,0-2.39,0Z" style="fill: #34651c"/>
            <path d="M23.42,121.56a1,1,0,1,0,1-1A1,1,0,0,0,23.42,121.56Z" style="fill: #34651c"/>
          </g>
          <path d="M23.65,150.45v-.8l.4.11c.16,2.14.22,5.48.31,6.14.18,1.42.46,3.06.75,4.3h-.93l-.53-3Z" style="fill: #a86f41;opacity: 0.5"/>
          <path d="M28.43,142.8a1.13,1.13,0,1,0,1.13-1.13A1.13,1.13,0,0,0,28.43,142.8Z" style="fill: #87ad54"/>
          <path d="M27.39,141a.73.73,0,0,0,.73.72.72.72,0,0,0,.72-.72.73.73,0,0,0-.72-.73A.73.73,0,0,0,27.39,141Z" style="fill: #87ad54"/>
        </g>
        <g>
          <path d="M22,151.88a2.38,2.38,0,0,0-2.59-.41,4.63,4.63,0,0,0-3.79-3.38,4.7,4.7,0,0,0-3.85-7.41,4.61,4.61,0,0,0-4.43,4.38,4.61,4.61,0,0,0-1.67-.28A4.7,4.7,0,0,0,1.5,151.1a4.8,4.8,0,0,0-.6,2.44,4.64,4.64,0,0,0,4.71,4.56,4.37,4.37,0,0,0,2.18-.64l.11.13A2.89,2.89,0,0,0,12,157.4a2.81,2.81,0,0,0,.5-.75,4.47,4.47,0,0,0,2.64.77,4.36,4.36,0,0,0,1.62-.36,1.71,1.71,0,0,0,3,.75,1.78,1.78,0,0,0,.4-1.75,2.47,2.47,0,0,0,1.95-.78A2.4,2.4,0,0,0,22,151.88Z" style="fill: #8bc444"/>
          <g>
            <path d="M10.88,159.32c0,.35,0,.62,0,.88h2.9a42.29,42.29,0,0,0,4.86-4.57c-.6.65-3.11,2.24-3.61,2.74-.23-.14.26-1.57.3-2.65,0,0-1.14,2-.79,3A15.84,15.84,0,0,1,12.45,160c-.13-1.65-.24-2.79-.32-3.58,0-.2,1.93-3.69,1.83-3.56a14.45,14.45,0,0,0-1.85,2.39c-.21.39-.73-3.06-.73-3.06-.28.22,0,2.58-.07,3.1a9.22,9.22,0,0,0-.12,1.16c0,.48-.11,1.63-.17,2.11-.51-.12-1.5-1.27-2.73-3.51C8.29,155,9.24,158.84,10.88,159.32Z" style="fill: #504943"/>
            <path d="M10.51,160.2h1.3c-1.48-.69-6.24-1.91-8-3.34C3.83,156.86,4.51,158.59,10.51,160.2Z" style="fill: #504943"/>
          </g>
          <path d="M13.28,143.53a.85.85,0,1,1-.85-.85A.85.85,0,0,1,13.28,143.53Z" style="fill: #f9fd6f;opacity: 0.5"/>
          <path d="M11.28,143.13a.4.4,0,1,1-.4-.4A.4.4,0,0,1,11.28,143.13Z" style="fill: #f9fd6f;opacity: 0.5"/>
          <g style="opacity: 0.5">
            <path d="M5.61,158.1a4.37,4.37,0,0,0,2.18-.64l.11.13A2.89,2.89,0,0,0,12,157.4a2.81,2.81,0,0,0,.5-.75,4.47,4.47,0,0,0,2.64.77,4.36,4.36,0,0,0,1.62-.36,1.71,1.71,0,0,0,3,.75,1.78,1.78,0,0,0,.4-1.75,2.47,2.47,0,0,0,1.95-.78,2.42,2.42,0,0,0,.27-3,5.73,5.73,0,0,1-1.18,2c-.82.68-1.72-.84-2.55-1.66s-1.22.08-2.37.66-2.27-.46-4-1-4.74,1.9-5.73,2.23-2.45,1.23-4.25.41a3.61,3.61,0,0,1-1.31-1A4.62,4.62,0,0,0,5.61,158.1Z" style="fill: #34651c"/>
            <path d="M15.77,152a1,1,0,1,1-1-1A1,1,0,0,1,15.77,152Z" style="fill: #34651c"/>
            <path d="M17,151.68a.45.45,0,1,1-.45-.45A.45.45,0,0,1,17,151.68Z" style="fill: #34651c"/>
          </g>
          <path d="M11.75,140.68a4.63,4.63,0,0,0-4.44,4.38,4.56,4.56,0,0,0-1.66-.28,4.57,4.57,0,0,0-4,2.62c2-1.47,5.07-1.05,6.57-.73a.26.26,0,0,0,.3-.13.29.29,0,0,0,0-.34l-.47-.53a.53.53,0,0,1-.05-.6c.66-1.12,3.15-4.56,7.61-2.42A4.52,4.52,0,0,0,11.75,140.68Z" style="fill: #f9fd6f;opacity: 0.5"/>
          <path d="M15.61,148.08a9.35,9.35,0,0,0-4.33,1.67,17.12,17.12,0,0,1,5.53-.56,7.14,7.14,0,0,1,1.56.4,4.59,4.59,0,0,0-2.77-1.5Z" style="fill: #f9fd6f;opacity: 0.5"/>
        </g>
        <polygon points="129.39 107.69 141.6 119.9 141.6 160.2 122.43 160.2 129.39 107.69" style="fill: #070041;opacity: 0.1"/>
        <polygon points="128.19 124.88 126.58 160.2 120.94 160.2 122.82 126.73 128.19 124.88" style="fill: #f0f1f7"/>
        <polygon points="171.66 160.2 126.58 160.2 128.19 124.88 153.95 115.86 160.67 42.28 169.74 43.73 171.66 160.2" style="fill: #a8b2be"/>
        <path d="M131.18,155.84s13.36-15.49,19.57-19.05,1.65-13.64,8.76-18.12,25,6.26,26.56,12,4.5,29.58,4.5,29.58H127.92Z" style="fill: #449555"/>
        <g>
          <polygon points="164.7 87.26 158.84 98.62 160.36 98.27 159.72 100.32 153.52 106.95 156.94 106.97 153.83 111.91 150.22 115.27 153.45 117.61 148.51 127.06 152.69 127.06 144.33 136.61 149.27 138.89 140.34 143.26 146.02 145.05 148.89 145.95 158.96 149.34 176.25 148.01 189.36 143.64 180.81 140.79 184.61 138.89 176.06 129.21 179.48 128.5 174.54 118.84 179.29 116.85 174.54 113.62 173.05 110.95 175.71 110.02 170.96 105.07 173.4 103.93 167.92 98.23 170.36 97.09 164.7 87.26" style="fill: #33884d"/>
          <polygon points="166.94 160.2 160.29 160.2 162 147.44 165.8 147.44 166.41 156.18 166.94 160.2" style="fill: #493b34"/>
          <polygon points="158.96 149.34 176.25 148.01 189.36 143.64 180.81 140.79 184.61 138.89 176.06 129.21 179.48 128.5 174.54 118.84 179.29 116.85 174.54 113.62 173.05 110.95 175.71 110.02 170.96 105.07 173.4 103.93 167.92 98.23 170.36 97.09 165.11 87.99 165.61 96.33 162.95 98.05 166.94 99.76 166.56 105.27 162.26 106.78 166.94 111.72 162.76 118.67 172.9 125.28 166.94 128.17 160.29 128.82 173.28 139.33 166.44 143.12 148.66 145.88 148.89 145.95 158.96 149.34" style="fill: #334f2c;opacity: 0.5"/>
          <g style="opacity: 0.2">
            <polygon points="152.69 127.06 144.33 136.61 159.47 127.06 152.69 127.06" style="fill: #f9fd6f;opacity: 0.5"/>
            <polygon points="153.45 117.61 148.51 127.06 150.69 127.06 156.91 118.3 153.45 117.61" style="fill: #f9fd6f;opacity: 0.5"/>
            <polygon points="150.22 115.27 151.49 116.18 155.42 112.36 155.59 109.11 153.83 111.91 150.22 115.27" style="fill: #f9fd6f;opacity: 0.5"/>
            <polygon points="149.27 138.89 140.34 143.26 164.85 138.89 149.27 138.89" style="fill: #f9fd6f;opacity: 0.5"/>
            <polygon points="159.87 99.86 159.72 100.32 153.52 106.95 154.55 106.95 162.54 99.86 159.87 99.86" style="fill: #f9fd6f;opacity: 0.5"/>
            <polygon points="159.8 98.39 163.02 95.55 164.7 87.26 158.84 98.62 159.8 98.39" style="fill: #f9fd6f;opacity: 0.5"/>
          </g>
          <polygon points="161.43 160.2 162.54 147.44 162 147.44 160.29 160.2 161.43 160.2" style="fill: #a86f41;opacity: 0.5"/>
          <g style="opacity: 0.2">
            <polygon points="153.52 115.59 155.59 113.81 155.59 115.35 153.52 115.59" style="fill: #f9fd6f;opacity: 0.5"/>
            <polygon points="163.62 99.86 163.62 101.46 164.7 100.66 163.62 99.86" style="fill: #f9fd6f;opacity: 0.5"/>
            <polygon points="154.56 125.28 156.91 125.28 156.91 123.24 154.56 125.28" style="fill: #f9fd6f;opacity: 0.5"/>
            <polygon points="164.85 137.78 162.54 135.54 161.42 137.18 164.85 137.78" style="fill: #f9fd6f;opacity: 0.5"/>
            <polygon points="172.08 144.79 169.77 142.55 168.64 144.2 172.08 144.79" style="fill: #f9fd6f;opacity: 0.5"/>
            <polygon points="180.57 140.01 178.25 137.77 177.13 139.42 180.57 140.01" style="fill: #f9fd6f;opacity: 0.5"/>
            <polygon points="160.74 135.54 159.47 137.78 157.57 137.78 160.74 135.54" style="fill: #f9fd6f;opacity: 0.5"/>
            <polygon points="164.85 111.47 163.62 112.65 162.54 111.47 164.85 111.47" style="fill: #f9fd6f;opacity: 0.5"/>
            <polygon points="169.25 116.44 168.02 117.61 166.94 116.44 169.25 116.44" style="fill: #f9fd6f;opacity: 0.5"/>
            <polygon points="177.73 116.44 176.49 117.61 175.41 116.44 177.73 116.44" style="fill: #f9fd6f;opacity: 0.5"/>
            <polygon points="171.52 103.72 170.28 104.9 169.21 103.72 171.52 103.72" style="fill: #f9fd6f;opacity: 0.5"/>
            <polygon points="166.94 126.04 169.01 125.44 166.44 124.26 166.94 126.04" style="fill: #f9fd6f;opacity: 0.5"/>
          </g>
          <g style="opacity: 0.5">
            <polygon points="178.85 141.08 176.57 141.08 178.85 142.63 178.85 141.08" style="fill: #334f2c;opacity: 0.5"/>
            <polygon points="174.54 129.84 171.76 130.62 174.54 131.84 174.54 129.84" style="fill: #334f2c;opacity: 0.5"/>
            <polygon points="166.44 118.84 169.01 119.63 166.94 120.97 166.44 118.84" style="fill: #334f2c;opacity: 0.5"/>
            <polygon points="170.36 105.52 169.01 105.52 170.36 106.95 170.36 105.52" style="fill: #334f2c;opacity: 0.5"/>
          </g>
        </g>
        <g>
          <path d="M166.61,139.87a6.92,6.92,0,0,0-.47-11.45,8.75,8.75,0,0,0-8.41-8.72,8.44,8.44,0,0,0-3.15.52,8.67,8.67,0,0,0-17.33.33,9,9,0,0,0,1.61,5.4l0,0a8.82,8.82,0,0,0-7.48,8.54,9.63,9.63,0,0,0,.16,1.95,3.68,3.68,0,0,0,2.7,5.59,6.85,6.85,0,0,0,13.4,1.09,5.54,5.54,0,0,0,4.59-.53,8.52,8.52,0,0,0,5.6,2.31,8.37,8.37,0,0,0,4.13-.94,3.12,3.12,0,1,0,4.67-4.12Z" style="fill: #8bc444"/>
          <path d="M150.9,148.65c0-.88,0-1.57-.05-2.67,2.46-.85,3.89-7.67,3.89-7.67-1.85,4-3.34,6-4.11,6.25-.09-.86-.19-2.9-.24-3.75a18.88,18.88,0,0,0-.19-2.06c-.16-.94.31-5.12-.1-5.52,0,0-.78,6.13-1.1,5.45a25.87,25.87,0,0,0-2.78-4.26c-.15-.22,2.78,6,2.75,6.33-.12,1.4-.28,3.43-.48,6.37a24.29,24.29,0,0,1-3.08-2.17c.53-1.81-1.18-5.37-1.18-5.37.05,1.92.79,4.47.44,4.71-.75-.89-4.52-3.71-5.41-4.87,0,0,5.27,6.91,9.09,9.59-.17,2.24-.24,5.94-.33,6.65-.2,1.5-.5,3.23-.8,4.54h4.46c-.07-.64-.23-1.27-.25-2,0-1.38-.07-6.24-.23-7.22,5.56-2.76,10.23-9.42,10.23-9.42C157.44,145.51,152.56,148.52,150.9,148.65Z" style="fill: #493b34"/>
          <path d="M144.84,114.54c4-.9,5.61-.11,8.19,1.16a8.6,8.6,0,0,0-6.86-3.78,8.77,8.77,0,0,0-8.92,8.63,9,9,0,0,0,1.61,5.4l0,0a8.82,8.82,0,0,0-7.48,8.54,10.94,10.94,0,0,0,.06,1.29c.76-1.67,4.27-7.87,9.3-6.72,3.07.7,3.72.59,5.38-.52.61-.41,0-.64-2.51-1.43C138.07,125.42,137.29,116.26,144.84,114.54Z" style="fill: #f9fd6f;opacity: 0.5"/>
          <path d="M150.91,121.87c-.92,1.26.13,1.34,2.58.69a20.94,20.94,0,0,1,6.55-.8c.89.07,3,.55,3.59.56a8.53,8.53,0,0,0-5.9-2.62,8.44,8.44,0,0,0-3.15.52S151.83,120.61,150.91,121.87Z" style="fill: #f9fd6f;opacity: 0.5"/>
          <g style="opacity: 0.5">
            <path d="M169.42,134.31a6.91,6.91,0,0,0-3.28-5.89,9.14,9.14,0,0,0-.35-2.35,3.82,3.82,0,0,1-2.17,1.75c-2.41.73-.92,2-.92,2s3.21,5.52-2.06,8.7a11.77,11.77,0,0,1-8.32,1c-3.32-.78-6.1-5-6.1-5s.53,6-5.5,7.68c-2.85.77-5.76-2.07-5.76-2.07a7.65,7.65,0,0,1-2,.2c-.57,0-1.06,0-1.47,0a4.26,4.26,0,0,0,.48.66,3.66,3.66,0,0,0,2.27,1.15,6.85,6.85,0,0,0,13.4,1.09,5.54,5.54,0,0,0,4.59-.53,8.52,8.52,0,0,0,5.6,2.31,8.37,8.37,0,0,0,4.13-.94,3.12,3.12,0,1,0,4.67-4.12A6.91,6.91,0,0,0,169.42,134.31Z" style="fill: #34651c"/>
            <path d="M161.92,135.33a1.88,1.88,0,1,1-1.88-1.87A1.88,1.88,0,0,1,161.92,135.33Z" style="fill: #34651c"/>
            <path d="M158.1,137.21a1.2,1.2,0,1,1-1.2-1.19A1.19,1.19,0,0,1,158.1,137.21Z" style="fill: #34651c"/>
            <path d="M139.26,139.21a1.19,1.19,0,1,1-1.19-1.19A1.19,1.19,0,0,1,139.26,139.21Z" style="fill: #34651c"/>
            <path d="M161.23,132.31a.88.88,0,1,1-.87-.88A.87.87,0,0,1,161.23,132.31Z" style="fill: #34651c"/>
            <path d="M141,137.1a.88.88,0,1,1-.87-.87A.87.87,0,0,1,141,137.1Z" style="fill: #34651c"/>
          </g>
          <path d="M164.81,141.22a1.19,1.19,0,1,1-1.19-1.19A1.19,1.19,0,0,1,164.81,141.22Z" style="fill: #87ad54"/>
          <path d="M165.91,139.3a.77.77,0,1,1-.77-.76A.77.77,0,0,1,165.91,139.3Z" style="fill: #87ad54"/>
          <path d="M144,118.51a1.2,1.2,0,1,1-1.2-1.2A1.19,1.19,0,0,1,144,118.51Z" style="fill: #f9fd6f;opacity: 0.5"/>
          <path d="M140.77,131.43a1.95,1.95,0,1,1-2-1.94A1.95,1.95,0,0,1,140.77,131.43Z" style="fill: #f9fd6f;opacity: 0.5"/>
          <path d="M144.59,116.34a.56.56,0,1,1-.56-.56A.56.56,0,0,1,144.59,116.34Z" style="fill: #f9fd6f;opacity: 0.5"/>
          <path d="M150.75,123.86a.56.56,0,1,1-.56-.56A.56.56,0,0,1,150.75,123.86Z" style="fill: #f9fd6f;opacity: 0.5"/>
          <path d="M148.76,149.92v-.84l-.42.11c-.17,2.25-.24,5.78-.32,6.47-.2,1.5-.5,3.23-.8,4.54h1l.56-3.18Z" style="fill: #a86f41;opacity: 0.5"/>
        </g>
        <g>
          <path d="M198.06,148.9a3.21,3.21,0,0,0-3.5-.56,6.29,6.29,0,0,0-5.15-4.57,6.47,6.47,0,0,0,1.16-3.88,6.21,6.21,0,0,0-12.41-.24,5.84,5.84,0,0,0-2.26-.37,6.28,6.28,0,0,0-6,6.53,6.6,6.6,0,0,0,.39,2.05,6.43,6.43,0,0,0-.8,3.3,6.28,6.28,0,0,0,6.39,6.19,6,6,0,0,0,3-.86s.09.11.15.16a3.94,3.94,0,0,0,6.22-1.27,6,6,0,0,0,5.78.56,2.31,2.31,0,0,0,.67,1.18A2.38,2.38,0,0,0,195,157a2.41,2.41,0,0,0,.55-2.37,3.33,3.33,0,0,0,2.64-1.06A3.27,3.27,0,0,0,198.06,148.9Z" style="fill: #8bc444"/>
          <g>
            <path d="M183,159c0,.47-.05.84-.05,1.19h3.94a57.52,57.52,0,0,0,6.59-6.2c-.8.88-4.21,3-4.89,3.71-.31-.18.35-2.13.4-3.59,0,0-1.54,2.71-1.06,4.1a21.8,21.8,0,0,1-2.79,1.65c-.18-2.24-.32-3.79-.44-4.86,0-.26,2.63-5,2.49-4.83a19.61,19.61,0,0,0-2.51,3.25c-.29.52-1-4.16-1-4.16-.38.3,0,3.5-.09,4.21a13.06,13.06,0,0,0-.18,1.58c0,.65-.14,2.2-.22,2.86-.69-.16-2-1.72-3.71-4.77C179.48,153.15,180.77,158.36,183,159Z" style="fill: #504943"/>
            <path d="M182.49,160.2h1.77c-2-.94-8.47-2.59-10.83-4.54C173.43,155.66,174.36,158,182.49,160.2Z" style="fill: #504943"/>
          </g>
          <path d="M186.26,137.58a1.16,1.16,0,1,1-1.16-1.16A1.16,1.16,0,0,1,186.26,137.58Z" style="fill: #f9fd6f;opacity: 0.5"/>
          <path d="M183.55,137a.55.55,0,0,1-.55.55.55.55,0,0,1-.54-.55.54.54,0,0,1,.54-.54A.55.55,0,0,1,183.55,137Z" style="fill: #f9fd6f;opacity: 0.5"/>
          <path d="M196.25,149.26a.54.54,0,1,1-1.08,0,.54.54,0,1,1,1.08,0Z" style="fill: #f9fd6f;opacity: 0.5"/>
          <g style="opacity: 0.5">
            <path d="M175.85,157.35a6,6,0,0,0,3-.86s.09.11.15.16a3.94,3.94,0,0,0,6.22-1.27,6,6,0,0,0,5.78.56,2.31,2.31,0,0,0,.67,1.18A2.38,2.38,0,0,0,195,157a2.41,2.41,0,0,0,.55-2.37,3.33,3.33,0,0,0,2.64-1.06,3.29,3.29,0,0,0,.37-4.05,8,8,0,0,1-1.61,2.69c-1.11.92-2.33-1.14-3.46-2.25s-1.65.11-3.2.9-3.09-.63-5.45-1.38-6.44,2.59-7.77,3-3.33,1.66-5.78.55a4.94,4.94,0,0,1-1.77-1.35A6.26,6.26,0,0,0,175.85,157.35Z" style="fill: #34651c"/>
            <path d="M189.64,149a1.34,1.34,0,1,1-1.33-1.33A1.33,1.33,0,0,1,189.64,149Z" style="fill: #34651c"/>
            <path d="M174.55,147.51a1.12,1.12,0,1,1-1.12-1.12A1.12,1.12,0,0,1,174.55,147.51Z" style="fill: #34651c"/>
            <path d="M191.25,148.63a.61.61,0,0,1-.61.61.61.61,0,0,1-.61-.61.62.62,0,0,1,.61-.61A.61.61,0,0,1,191.25,148.63Z" style="fill: #34651c"/>
            <path d="M171.8,147.41a.61.61,0,1,1-1.22,0,.61.61,0,1,1,1.22,0Z" style="fill: #34651c"/>
            <path d="M175.19,145.7a.63.63,0,1,1-.63-.62A.63.63,0,0,1,175.19,145.7Z" style="fill: #34651c"/>
          </g>
          <path d="M184.18,133.7a6.28,6.28,0,0,0-6,6,6,6,0,0,0-2.26-.38,6.2,6.2,0,0,0-5.39,3.55c2.68-2,6.87-1.42,8.9-1a.38.38,0,0,0,.42-.18.39.39,0,0,0,0-.46l-.63-.73a.71.71,0,0,1-.07-.81c.9-1.51,4.28-6.18,10.34-3.28A6.18,6.18,0,0,0,184.18,133.7Z" style="fill: #f9fd6f;opacity: 0.5"/>
          <path d="M189.42,143.75a12.7,12.7,0,0,0-5.87,2.27,23.06,23.06,0,0,1,7.5-.76,9.51,9.51,0,0,1,2.12.54,6.13,6.13,0,0,0-3.76-2S189.42,143.76,189.42,143.75Z" style="fill: #f9fd6f;opacity: 0.5"/>
          <path d="M182.65,152.47a1.16,1.16,0,1,1-1.16-1.16A1.15,1.15,0,0,1,182.65,152.47Z" style="fill: #8bc444"/>
          <path d="M183,150.52a.54.54,0,1,1-.54-.54A.54.54,0,0,1,183,150.52Z" style="fill: #8bc444"/>
        </g>
      </g>
      <rect width="200" height="200" style="fill: none"/>
    </g>
  </g>
</svg>
