<svg xmlns="http://www.w3.org/2000/svg" xmlns:xlink="http://www.w3.org/1999/xlink" width="200" height="200" viewBox="0 0 200 200">
  <defs>
    <linearGradient id="a" x1="-2742.88" y1="850.4" x2="-2741.83" y2="846.71" gradientTransform="translate(3000.83 -316.58) rotate(8.57)" gradientUnits="userSpaceOnUse">
      <stop offset="0" stop-color="#505b64"/>
      <stop offset="0.3" stop-color="#4e5861"/>
      <stop offset="0.53" stop-color="#465058"/>
      <stop offset="0.73" stop-color="#384148"/>
      <stop offset="0.91" stop-color="#262c31"/>
      <stop offset="1" stop-color="#1a1f23"/>
    </linearGradient>
    <linearGradient id="b" x1="-2851.8" y1="799.75" x2="-2849.18" y2="790.58" xlink:href="#a"/>
    <linearGradient id="c" x1="-2791.83" y1="827.55" x2="-2790.07" y2="821.38" xlink:href="#a"/>
    <linearGradient id="d" x1="125.63" y1="127.78" x2="108.4" y2="148.3" gradientUnits="userSpaceOnUse">
      <stop offset="0" stop-color="#9cc5e8"/>
      <stop offset="0.12" stop-color="#94bee1"/>
      <stop offset="0.31" stop-color="#80aacd"/>
      <stop offset="0.53" stop-color="#5e89ac"/>
      <stop offset="0.78" stop-color="#2f5c7e"/>
      <stop offset="1" stop-color="#002f51"/>
    </linearGradient>
    <linearGradient id="e" x1="68.69" y1="144.86" x2="59.48" y2="133.9" gradientUnits="userSpaceOnUse">
      <stop offset="0" stop-color="#002f51"/>
      <stop offset="0.11" stop-color="#124063"/>
      <stop offset="1" stop-color="#9cc5e8"/>
    </linearGradient>
  </defs>
  <g style="isolation: isolate">
    <g>
      <circle cx="100" cy="100" r="100" style="fill: #48a6ff"/>
      <g>
        <path d="M28,164.69c5,1.51,55.76,11.89,71.67,14.19,23.61,3.43,58.14-8.71,71.63-13.57s3.77-6.16-4.73-8.2S94.12,154,94.12,154,24,156.14,22.41,159,23,163.18,28,164.69Z" style="fill: #e7ebee;mix-blend-mode: multiply"/>
        <path d="M30.15,160.2C35.72,162,72.38,170.75,86.43,173s52.11-4.81,64-8.4,4-5.25-4.09-6.93c-7.83-1.63-58.49-3.62-58.49-3.62s-67.31-1.72-68.71.56S24.57,158.41,30.15,160.2Z" style="fill: #e7ebee;mix-blend-mode: multiply"/>
      </g>
      <g style="opacity: 0.2">
        <path d="M129.67,101.93c-1.29,0-2.55.06-3.78.07-.9,3.45-13.13,6.61-28.15,7.17-15.61.58-28.28-1.87-28.31-5.47,0-2.07,4.14-4.06,10.63-5.5-6.37-.57-10.68-2-10.7-3.76,0-2.63,9.19-5.1,20.57-5.52,9.25-.35,17.09.77,19.71,2.61a94.08,94.08,0,0,1,19.94-2.65c15.61-.58,28.29,1.87,28.32,5.47S145.28,101.35,129.67,101.93Z" style="fill: #fff;opacity: 0.5"/>
        <path d="M52.53,62.45c1.63.06,3.22.09,4.78.11,1.14,3.72,16.63,7.22,35.64,7.93,19.76.73,35.79-1.82,35.82-5.71,0-2.23-5.25-4.41-13.46-6,8.06-.57,13.51-2.05,13.53-4,0-2.83-11.64-5.57-26-6.1-11.7-.44-21.62.71-24.93,2.68a138.67,138.67,0,0,0-25.25-3c-19.76-.74-35.8,1.82-35.83,5.7S32.77,61.71,52.53,62.45Z" style="fill: #fff;opacity: 0.30000000000000004"/>
        <path d="M31.42,91.5c4.14,3.63,30.81,6.15,59.56,5.63,16.49-.3,30.05-1.54,37.87-3.22C137,95.27,150.6,96,164.91,95.78c21-.38,35.51-2.84,32.47-5.49-2.43-2.15-15.75-3.76-31.89-4.09,8-1.36,12-3.1,9.93-4.92-4.14-3.63-30.81-6.15-59.56-5.62s-48.72,3.89-44.59,7.52a6.5,6.5,0,0,0,1.52.87C45.79,84.76,27.45,88,31.42,91.5Z" style="fill: #fff;opacity: 0.7000000000000001"/>
      </g>
      <g style="opacity: 0.4">
        <path d="M181.78,63.47A26.51,26.51,0,1,1,155.28,37,26.5,26.5,0,0,1,181.78,63.47Z" style="fill: #fffdeb;opacity: 0.2"/>
        <circle cx="155.28" cy="63.47" r="18.73" transform="translate(57.44 199.73) rotate(-76.55)" style="fill: #fffdeb;opacity: 0.5"/>
        <path d="M162.7,63.16A7.43,7.43,0,1,1,155,56.05,7.43,7.43,0,0,1,162.7,63.16Z" style="fill: #fff"/>
      </g>
      <g>
        <g>
          <g>
            <path d="M162.75,115.5l1.62.36L168,117l.91-.06a3.21,3.21,0,0,0,.8-1.75,1.38,1.38,0,0,0-.87-1.34l-5.66-1.37s-.76.58-.76,1.16A13,13,0,0,0,162.75,115.5Z" style="fill: #9299a2"/>
            <path d="M169.75,115.18a1.38,1.38,0,0,0-.87-1.34l-5.66-1.37s-.76.58-.76,1.16C164.25,114.17,167.42,114.37,169.75,115.18Z" style="fill: #fff;opacity: 0.30000000000000004"/>
            <path d="M163.37,114.12c-.11.72-.51,1.26-.88,1.2s-.59-.68-.48-1.41.5-1.26.88-1.21S163.47,113.39,163.37,114.12Z" style="fill: url(#a)"/>
            <path d="M162.75,115.5l1.62.36L168,117l.91-.06s-.51-1.52-6.49-3.3A13,13,0,0,0,162.75,115.5Z" style="opacity: 0.2"/>
            <g>
              <polygon points="162.52 113.45 158.69 106.83 147.2 98.8 146.71 99.31 162.03 113.96 162.52 113.45" style="fill: #c9ccd4"/>
              <rect x="154.26" y="95.78" width="0.71" height="21.19" transform="translate(-29.13 144.59) rotate(-46.28)" style="fill: #fff;opacity: 0.5"/>
              <polygon points="149.65 100.51 148.84 101.35 148.12 100.66 148.82 99.93 149.65 100.51" style="fill: #ed403b"/>
              <polygon points="148.03 99.38 147.43 100 146.71 99.31 147.2 98.8 148.03 99.38" style="fill: #ed403b"/>
              <polygon points="162.42 113.85 170.06 113.83 182.76 107.91 182.56 107.23 162.22 113.16 162.42 113.85" style="fill: #c9ccd4"/>
              <rect x="161.9" y="110.18" width="21.19" height="0.71" transform="translate(-24.06 52.77) rotate(-16.27)" style="fill: #fff;opacity: 0.5"/>
              <polygon points="180.06 109.17 179.73 108.05 180.69 107.77 180.97 108.74 180.06 109.17" style="fill: #ed403b"/>
              <polygon points="181.85 108.33 181.6 107.5 182.56 107.23 182.76 107.91 181.85 108.33" style="fill: #ed403b"/>
              <polygon points="162.12 113.56 158.31 120.19 157.09 134.15 157.78 134.32 162.81 113.73 162.12 113.56" style="fill: #c9ccd4"/>
              <rect x="149.36" y="123.58" width="21.19" height="0.71" transform="translate(1.58 249.89) rotate(-76.26)" style="fill: #fff;opacity: 0.5"/>
              <polygon points="157.35 131.18 158.48 131.45 158.25 132.42 157.27 132.18 157.35 131.18" style="fill: #ed403b"/>
              <polygon points="157.18 133.14 158.02 133.35 157.78 134.32 157.09 134.15 157.18 133.14" style="fill: #ed403b"/>
            </g>
            <path d="M162.82,114c.08-.75-.1-1.54-.64-1.4s-1.51.87-1.48,1.12a2.89,2.89,0,0,0,1.31,1.16C162.57,115.09,162.76,114.57,162.82,114Z" style="fill: #9299a2"/>
            <path d="M162.19,112.7c.13,0,.28.12.27.27s-1.58.59-1.58.59.46-.39.63-.51A2.94,2.94,0,0,1,162.19,112.7Z" style="fill: #fff;opacity: 0.5"/>
            <g>
              <g>
                <path d="M168.21,160.2l-1.27-43.26h0a1.06,1.06,0,0,0-.6-1,2.06,2.06,0,0,0-1.65-.24,1.46,1.46,0,0,0-1.23,1.27h0l-1.26,43.26Z" style="fill: #c9ccd4"/>
                <path d="M165.19,117.11c1.81,0,1.8.65,1.8,1.45l-.05-2c0-.78,0-1.4-1.74-1.4s-1.74.62-1.74,1.4l-.06,2C163.4,117.76,163.39,117.11,165.19,117.11Z" style="fill: #aeb3bc"/>
              </g>
              <g style="opacity: 0.5">
                <path d="M167.28,160.2h-1.82l0-43.21c0-.77,0-1.39.53-1.39s.52.62.52,1.39Z" style="opacity: 0.2"/>
              </g>
              <path d="M163,160.2h.93l.31-43c0-.76,0-1.38-.27-1.38s-.27.62-.27,1.38Z" style="fill: #fff;opacity: 0.5"/>
            </g>
            <g>
              <rect x="160.48" y="158.13" width="9.35" height="2.07" style="fill: #5c666e"/>
              <rect x="161.7" y="158.13" width="1.43" height="2.07" style="fill: #fff;opacity: 0.30000000000000004"/>
              <rect x="166.4" y="158.13" width="2.2" height="2.07" style="opacity: 0.30000000000000004"/>
            </g>
          </g>
          <g>
            <path d="M63.78,49l4,.89,9.13,2.81,2.27-.16a8,8,0,0,0,2-4.34A3.45,3.45,0,0,0,79,44.91L64.93,41.5s-1.87,1.44-1.87,2.87A32.23,32.23,0,0,0,63.78,49Z" style="fill: #9299a2"/>
            <path d="M81.18,48.24A3.45,3.45,0,0,0,79,44.91L64.93,41.5s-1.87,1.44-1.87,2.87C67.51,45.74,75.39,46.23,81.18,48.24Z" style="fill: #fff;opacity: 0.30000000000000004"/>
            <path d="M65.3,45.59c-.27,1.8-1.25,3.15-2.17,3s-1.47-1.72-1.2-3.52,1.25-3.14,2.18-3S65.57,43.79,65.3,45.59Z" style="fill: url(#b)"/>
            <path d="M63.78,49l4,.89,9.13,2.81,2.27-.16s-1.28-3.76-16.14-8.21A32.23,32.23,0,0,0,63.78,49Z" style="opacity: 0.2"/>
            <g>
              <polygon points="62.23 44.31 56.37 26.22 32.64 0.69 31.18 1.69 60.77 45.3 62.23 44.31" style="fill: #c9ccd4"/>
              <rect x="45.82" y="-3.36" width="1.77" height="52.7" transform="translate(-4.86 30.18) rotate(-34.15)" style="fill: #fff;opacity: 0.5"/>
              <polygon points="37.7 6.13 35.3 7.76 33.9 5.7 35.98 4.29 37.7 6.13" style="fill: #ed403b"/>
              <polygon points="34.35 2.54 32.58 3.74 31.18 1.69 32.64 0.69 34.35 2.54" style="fill: #ed403b"/>
              <polygon points="61.78 45.22 80.37 49.19 114.35 41.41 114.22 39.65 61.66 43.46 61.78 45.22" style="fill: #c9ccd4"/>
              <rect x="61.65" y="41.55" width="52.7" height="1.77" transform="translate(-2.84 6.48) rotate(-4.15)" style="fill: #fff;opacity: 0.5"/>
              <polygon points="107.11 43.07 106.9 40.18 109.38 40 109.56 42.5 107.11 43.07" style="fill: #ed403b"/>
              <polygon points="111.89 41.97 111.74 39.82 114.22 39.65 114.35 41.41 111.89 41.97" style="fill: #ed403b"/>
              <polygon points="61.21 44.38 48.48 58.5 38.23 91.81 39.82 92.58 62.8 45.15 61.21 44.38" style="fill: #c9ccd4"/>
              <rect x="24.16" y="67.6" width="52.7" height="1.77" transform="translate(-33.14 84.08) rotate(-64.15)" style="fill: #fff;opacity: 0.5"/>
              <polygon points="40.41 84.71 43.02 85.97 41.94 88.21 39.68 87.12 40.41 84.71" style="fill: #ed403b"/>
              <polygon points="38.97 89.41 40.91 90.34 39.82 92.58 38.23 91.81 38.97 89.41" style="fill: #ed403b"/>
            </g>
            <path d="M64,45.25c.2-1.85-.26-3.84-1.6-3.48s-3.77,2.15-3.68,2.78,1.87,2.31,3.25,2.89S63.79,46.72,64,45.25Z" style="fill: #9299a2"/>
            <path d="M62.37,42.07a.67.67,0,0,1,.69.68c0,.37-4,1.46-4,1.46s1.16-1,1.57-1.26A7.07,7.07,0,0,1,62.37,42.07Z" style="fill: #fff;opacity: 0.5"/>
            <g>
              <g>
                <path d="M77.33,160.2,74.19,52.63h0A2.64,2.64,0,0,0,72.69,50a5.23,5.23,0,0,0-4.09-.59,3.63,3.63,0,0,0-3.07,3.18h0L62.37,160.2Z" style="fill: #c9ccd4"/>
                <path d="M69.85,53.05c4.5,0,4.46,1.61,4.46,3.6l-.13-5c0-1.92.11-3.49-4.31-3.49s-4.34,1.57-4.34,3.49l-.14,5C65.39,54.66,65.35,53.05,69.85,53.05Z" style="fill: #aeb3bc"/>
              </g>
              <g style="opacity: 0.5">
                <path d="M75,160.2H70.5l.13-107.47c0-1.91,0-3.45,1.31-3.45s1.31,1.54,1.31,3.45Z" style="opacity: 0.2"/>
              </g>
              <path d="M64.41,160.2h2.33L67.5,53.31c0-1.9,0-3.43-.68-3.43s-.67,1.53-.67,3.43Z" style="fill: #fff;opacity: 0.5"/>
            </g>
            <g>
              <rect x="58.14" y="155.05" width="23.24" height="5.15" style="fill: #5c666e"/>
              <rect x="61.16" y="155.05" width="3.56" height="5.15" style="fill: #fff;opacity: 0.30000000000000004"/>
              <rect x="72.85" y="155.05" width="5.46" height="5.15" style="opacity: 0.30000000000000004"/>
            </g>
          </g>
          <g>
            <path d="M118.29,85.54l2.7.6L127.13,88l1.52-.11A5.37,5.37,0,0,0,130,85a2.31,2.31,0,0,0-1.45-2.24l-9.47-2.29s-1.25,1-1.25,1.93A21.84,21.84,0,0,0,118.29,85.54Z" style="fill: #9299a2"/>
            <path d="M130,85a2.31,2.31,0,0,0-1.45-2.24l-9.47-2.29s-1.25,1-1.25,1.93C120.8,83.33,126.09,83.66,130,85Z" style="fill: #fff;opacity: 0.30000000000000004"/>
            <path d="M119.31,83.23c-.18,1.21-.83,2.11-1.46,2s-1-1.14-.8-2.35.84-2.12,1.46-2S119.5,82,119.31,83.23Z" style="fill: url(#c)"/>
            <path d="M118.29,85.54l2.7.6L127.13,88l1.52-.11s-.86-2.53-10.84-5.51A21.84,21.84,0,0,0,118.29,85.54Z" style="opacity: 0.2"/>
            <g>
              <g>
                <path d="M127.4,160.2,125.29,88h0a1.78,1.78,0,0,0-1-1.73,3.5,3.5,0,0,0-2.75-.4A2.42,2.42,0,0,0,119.47,88h0l-2.11,72.25Z" style="fill: #c9ccd4"/>
                <path d="M122.37,88.23c3,0,3,1.09,3,2.42l-.08-3.32c0-1.3.07-2.35-2.9-2.35s-2.91,1-2.91,2.35l-.1,3.32C119.37,89.32,119.35,88.23,122.37,88.23Z" style="fill: #aeb3bc"/>
              </g>
              <g style="opacity: 0.5">
                <path d="M125.85,160.2h-3L122.89,88c0-1.28,0-2.32.89-2.32s.87,1,.87,2.32Z" style="opacity: 0.2"/>
              </g>
              <path d="M118.72,160.2h1.56l.51-71.79c0-1.27,0-2.3-.45-2.3s-.46,1-.46,2.3Z" style="fill: #fff;opacity: 0.5"/>
            </g>
            <g>
              <rect x="114.5" y="156.74" width="15.61" height="3.46" style="fill: #5c666e"/>
              <rect x="116.53" y="156.74" width="2.39" height="3.46" style="fill: #fff;opacity: 0.30000000000000004"/>
              <rect x="124.38" y="156.74" width="3.67" height="3.46" style="opacity: 0.30000000000000004"/>
            </g>
            <g>
              <polygon points="117.14 83.04 128.46 88.94 151.85 90.01 152.08 88.85 117.38 81.88 117.14 83.04" style="fill: #c9ccd4"/>
              <rect x="134.02" y="68.25" width="1.19" height="35.4" transform="translate(23.84 200.99) rotate(-78.64)" style="fill: #fff;opacity: 0.5"/>
              <polygon points="146.86 89.78 147.25 87.88 148.89 88.21 148.55 89.86 146.86 89.78" style="fill: #ed403b"/>
              <polygon points="150.16 89.94 150.44 88.52 152.08 88.85 151.85 90.01 150.16 89.94" style="fill: #ed403b"/>
              <polygon points="116.92 82.39 106.15 89.24 93.53 108.95 94.43 109.74 117.82 83.17 116.92 82.39" style="fill: #c9ccd4"/>
              <rect x="87.98" y="95.47" width="35.4" height="1.19" transform="translate(-36.26 111.89) rotate(-48.64)" style="fill: #fff;opacity: 0.5"/>
              <polygon points="96.22 104.76 97.68 106.04 96.58 107.29 95.31 106.18 96.22 104.76" style="fill: #ed403b"/>
              <polygon points="94.45 107.53 95.53 108.49 94.43 109.74 93.53 108.95 94.45 107.53" style="fill: #ed403b"/>
              <polygon points="117.6 82.53 117.05 69.77 106.29 48.98 105.16 49.36 116.47 82.9 117.6 82.53" style="fill: #c9ccd4"/>
              <rect x="110.79" y="48.24" width="1.19" height="35.4" transform="translate(-15.23 39.04) rotate(-18.63)" style="fill: #fff;opacity: 0.5"/>
              <polygon points="108.58 53.41 106.74 54.03 106.2 52.45 107.8 51.91 108.58 53.41" style="fill: #ed403b"/>
              <polygon points="107.06 50.48 105.7 50.95 105.16 49.36 106.29 48.98 107.06 50.48" style="fill: #ed403b"/>
            </g>
            <path d="M118.41,83c.13-1.25-.17-2.58-1.07-2.34s-2.53,1.45-2.47,1.87a4.66,4.66,0,0,0,2.18,1.93C118,84.85,118.3,84,118.41,83Z" style="fill: #9299a2"/>
            <path d="M117.35,80.86c.22,0,.46.21.46.46s-2.65,1-2.65,1,.78-.66,1-.84A4.37,4.37,0,0,1,117.35,80.86Z" style="fill: #fff;opacity: 0.5"/>
          </g>
        </g>
        <g>
          <path d="M166,150.42a2.8,2.8,0,0,0-3-.48,5.45,5.45,0,0,0-4.46-4,5.52,5.52,0,0,0,1-3.36,5.37,5.37,0,0,0-10.74-.2,5.07,5.07,0,0,0-1.95-.33,5.45,5.45,0,0,0-5.22,5.66,5.79,5.79,0,0,0,.34,1.77,5.52,5.52,0,0,0-.7,2.86,5.44,5.44,0,0,0,5.53,5.35,5.17,5.17,0,0,0,2.55-.75l.13.15a3.42,3.42,0,0,0,5.39-1.1,5.2,5.2,0,0,0,3.1.9,5.47,5.47,0,0,0,1.9-.41,2,2,0,0,0,.58,1,2.07,2.07,0,0,0,2.91-.14,2.1,2.1,0,0,0,.47-2,2.9,2.9,0,0,0,2.29-.92A2.84,2.84,0,0,0,166,150.42Z" style="fill: #8bc444"/>
          <g>
            <path d="M153,159.17c0,.4,0,.73,0,1h3.41a50.08,50.08,0,0,0,5.7-5.37c-.7.77-3.64,2.63-4.23,3.22-.27-.16.3-1.85.34-3.11,0,0-1.33,2.35-.92,3.55a18.9,18.9,0,0,1-2.41,1.43c-.15-1.94-.28-3.28-.37-4.21,0-.23,2.27-4.33,2.15-4.18a16.68,16.68,0,0,0-2.18,2.81c-.25.45-.86-3.6-.86-3.6-.32.26,0,3-.07,3.65a10.08,10.08,0,0,0-.15,1.36c0,.56-.12,1.91-.19,2.47-.6-.14-1.77-1.49-3.22-4.12C149.92,154.1,151,158.61,153,159.17Z" style="fill: #504943"/>
            <path d="M152.53,160.2h1.53c-1.74-.81-7.33-2.24-9.37-3.93C144.69,156.27,145.49,158.31,152.53,160.2Z" style="fill: #504943"/>
          </g>
          <path d="M155.79,140.62a1,1,0,1,1-1-1A1,1,0,0,1,155.79,140.62Z" style="fill: #f9fd6f;opacity: 0.5"/>
          <path d="M153.44,140.15a.47.47,0,1,1-.47-.47A.47.47,0,0,1,153.44,140.15Z" style="fill: #f9fd6f;opacity: 0.5"/>
          <path d="M164.44,150.74a.47.47,0,1,1-.47-.47A.47.47,0,0,1,164.44,150.74Z" style="fill: #f9fd6f;opacity: 0.5"/>
          <g style="opacity: 0.5">
            <path d="M146.78,157.73a5.17,5.17,0,0,0,2.55-.75l.13.15a3.42,3.42,0,0,0,5.39-1.1,5.2,5.2,0,0,0,3.1.9,5.47,5.47,0,0,0,1.9-.41,2,2,0,0,0,.58,1,2.07,2.07,0,0,0,2.91-.14,2.1,2.1,0,0,0,.47-2,2.9,2.9,0,0,0,2.29-.92,2.85,2.85,0,0,0,.31-3.51,6.81,6.81,0,0,1-1.39,2.34c-1,.79-2-1-3-1.95s-1.43.09-2.77.77-2.67-.54-4.71-1.19-5.58,2.24-6.73,2.63-2.88,1.44-5,.48a4.43,4.43,0,0,1-1.54-1.18A5.44,5.44,0,0,0,146.78,157.73Z" style="fill: #34651c"/>
            <path d="M158.71,150.53a1.15,1.15,0,1,1-1.15-1.15A1.16,1.16,0,0,1,158.71,150.53Z" style="fill: #34651c"/>
            <path d="M145.66,149.22a1,1,0,1,1-1-1A1,1,0,0,1,145.66,149.22Z" style="fill: #34651c"/>
            <path d="M160.11,150.19a.53.53,0,1,1-.53-.53A.53.53,0,0,1,160.11,150.19Z" style="fill: #34651c"/>
            <path d="M143.28,149.13a.53.53,0,1,1-.53-.52A.53.53,0,0,1,143.28,149.13Z" style="fill: #34651c"/>
            <path d="M146.21,147.65a.54.54,0,0,1-1.08,0,.54.54,0,1,1,1.08,0Z" style="fill: #34651c"/>
          </g>
          <path d="M154,137.27a5.43,5.43,0,0,0-5.21,5.15,5.07,5.07,0,0,0-1.95-.33,5.36,5.36,0,0,0-4.67,3.08c2.32-1.73,5.94-1.24,7.7-.86a.35.35,0,0,0,.37-.15.35.35,0,0,0,0-.4l-.54-.63a.59.59,0,0,1-.06-.7c.78-1.31,3.7-5.35,8.94-2.84A5.34,5.34,0,0,0,154,137.27Z" style="fill: #f9fd6f;opacity: 0.5"/>
          <path d="M158.52,146a10.94,10.94,0,0,0-5.08,2,19.93,19.93,0,0,1,6.49-.66,8.12,8.12,0,0,1,1.84.47,5.38,5.38,0,0,0-3.26-1.76Z" style="fill: #f9fd6f;opacity: 0.5"/>
          <path d="M152.66,153.51a1,1,0,1,1-1-1A1,1,0,0,1,152.66,153.51Z" style="fill: #8bc444"/>
          <path d="M153,151.82a.47.47,0,1,1-.47-.47A.47.47,0,0,1,153,151.82Z" style="fill: #8bc444"/>
        </g>
        <g>
          <path d="M60.21,150.42a2.8,2.8,0,0,0-3-.48,5.43,5.43,0,0,0-4.45-4,5.59,5.59,0,0,0,1-3.36,5.37,5.37,0,0,0-10.74-.2,5.12,5.12,0,0,0-2-.33,5.46,5.46,0,0,0-5.22,5.66,5.79,5.79,0,0,0,.34,1.77,5.61,5.61,0,0,0-.69,2.86A5.43,5.43,0,0,0,41,157.73a5.17,5.17,0,0,0,2.55-.75l.13.15a3.39,3.39,0,0,0,4.79-.22,3.43,3.43,0,0,0,.6-.88,5.15,5.15,0,0,0,3.09.9,5.48,5.48,0,0,0,1.91-.41,1.94,1.94,0,0,0,.57,1A2.09,2.09,0,0,0,58,155.34a2.88,2.88,0,0,0,2.29-.92A2.83,2.83,0,0,0,60.21,150.42Z" style="fill: #8bc444"/>
          <g>
            <path d="M47.18,159.17c0,.4,0,.73,0,1h3.41a50.08,50.08,0,0,0,5.7-5.37c-.69.77-3.64,2.63-4.23,3.22-.27-.16.31-1.85.35-3.11,0,0-1.34,2.35-.92,3.55A19.76,19.76,0,0,1,49,159.92c-.15-1.94-.27-3.28-.37-4.21,0-.23,2.27-4.33,2.15-4.18a17.17,17.17,0,0,0-2.17,2.81c-.25.45-.86-3.6-.86-3.6-.33.26,0,3-.08,3.65a10.08,10.08,0,0,0-.15,1.36c0,.56-.12,1.91-.19,2.47-.6-.14-1.76-1.49-3.21-4.12C44.14,154.1,45.25,158.61,47.18,159.17Z" style="fill: #504943"/>
            <path d="M46.74,160.2h1.54c-1.74-.81-7.34-2.24-9.38-3.93C38.9,156.27,39.71,158.31,46.74,160.2Z" style="fill: #504943"/>
          </g>
          <path d="M50,140.62a1,1,0,1,1-1-1A1,1,0,0,1,50,140.62Z" style="fill: #f9fd6f;opacity: 0.5"/>
          <path d="M47.66,140.15a.47.47,0,1,1-.47-.47A.47.47,0,0,1,47.66,140.15Z" style="fill: #f9fd6f;opacity: 0.5"/>
          <path d="M58.65,150.74a.47.47,0,1,1-.47-.47A.47.47,0,0,1,58.65,150.74Z" style="fill: #f9fd6f;opacity: 0.5"/>
          <g style="opacity: 0.5">
            <path d="M41,157.73a5.17,5.17,0,0,0,2.55-.75l.13.15a3.39,3.39,0,0,0,4.79-.22,3.43,3.43,0,0,0,.6-.88,5.15,5.15,0,0,0,3.09.9,5.48,5.48,0,0,0,1.91-.41,1.94,1.94,0,0,0,.57,1A2.09,2.09,0,0,0,58,155.34a2.88,2.88,0,0,0,2.29-.92,2.85,2.85,0,0,0,.32-3.51,6.81,6.81,0,0,1-1.39,2.34c-1,.79-2-1-3-1.95s-1.42.09-2.77.77-2.67-.54-4.71-1.19-5.57,2.24-6.73,2.63S39.15,155,37,154a4.34,4.34,0,0,1-1.54-1.18A5.43,5.43,0,0,0,41,157.73Z" style="fill: #34651c"/>
            <path d="M52.93,150.53a1.16,1.16,0,1,1-1.16-1.15A1.16,1.16,0,0,1,52.93,150.53Z" style="fill: #34651c"/>
            <path d="M39.87,149.22a1,1,0,0,1-1.94,0,1,1,0,0,1,1.94,0Z" style="fill: #34651c"/>
            <path d="M54.33,150.19a.53.53,0,1,1-.53-.53A.53.53,0,0,1,54.33,150.19Z" style="fill: #34651c"/>
            <path d="M37.49,149.13a.53.53,0,1,1-.52-.52A.52.52,0,0,1,37.49,149.13Z" style="fill: #34651c"/>
            <path d="M40.42,147.65a.54.54,0,0,1-.54.54.54.54,0,0,1-.54-.54.55.55,0,0,1,.54-.54A.54.54,0,0,1,40.42,147.65Z" style="fill: #34651c"/>
          </g>
          <path d="M48.21,137.27A5.43,5.43,0,0,0,43,142.42a5.31,5.31,0,0,0-2-.33,5.37,5.37,0,0,0-4.67,3.08c2.33-1.73,6-1.24,7.71-.86a.32.32,0,0,0,.36-.15.35.35,0,0,0,0-.4l-.55-.63a.6.6,0,0,1-.06-.7c.78-1.31,3.71-5.35,8.94-2.84A5.32,5.32,0,0,0,48.21,137.27Z" style="fill: #f9fd6f;opacity: 0.5"/>
          <path d="M52.74,146a10.87,10.87,0,0,0-5.08,2,19.9,19.9,0,0,1,6.48-.66,7.87,7.87,0,0,1,1.84.47A5.32,5.32,0,0,0,52.73,146Z" style="fill: #f9fd6f;opacity: 0.5"/>
          <path d="M46.88,153.51a1,1,0,1,1-1-1A1,1,0,0,1,46.88,153.51Z" style="fill: #8bc444"/>
          <path d="M47.19,151.82a.47.47,0,1,1-.47-.47A.47.47,0,0,1,47.19,151.82Z" style="fill: #8bc444"/>
        </g>
        <g>
          <polygon points="134.78 154.81 96.2 153.49 96.2 160.2 134.78 160.2 134.78 154.81" style="fill: #30404b"/>
          <polygon points="55.33 154.89 96.2 153.49 96.2 116.97 55.33 126 55.33 135.22 56.27 135.48 56.27 145.17 55.33 145.57 55.33 154.89" style="fill: #f0f1f7"/>
          <polygon points="96.2 116.97 96.2 153.49 137.07 154.89 137.07 145.6 136.31 145.19 136.31 135.5 137.07 135.31 137.07 126.02 96.2 116.97" style="fill: #cbd2de"/>
          <polygon points="136.31 135.5 96.2 129.13 96.2 141.31 136.31 145.19 136.31 135.5" style="fill: #30404b"/>
          <polygon points="56.27 135.48 56.27 145.17 96.2 141.31 96.2 129.13 56.27 135.48" style="fill: #485967"/>
          <polygon points="58.27 154.79 96.2 153.49 96.2 160.2 58.27 160.2 58.27 154.79" style="fill: #485967"/>
          <polygon points="56.27 135.48 55.33 135.22 96.2 127.96 137.07 135.31 136.31 135.5 96.2 129.13 56.27 135.48" style="fill: #25343e"/>
          <polygon points="80.37 154.03 73.44 154.27 73.44 132.75 80.37 133.59 80.37 154.03" style="fill: #cbd2de"/>
          <polygon points="93.13 129.62 80.37 131.65 80.37 154.03 93.13 153.6 93.13 129.62" style="fill: #304650"/>
          <polygon points="93.13 134.91 87.95 135.59 87.95 153.18 93.13 153 93.13 134.91" style="fill: #152830"/>
          <polygon points="93.13 129.62 89.75 129.1 70.98 132.44 73.44 132.75 80.37 133.59 93.13 131.7 93.13 129.62" style="fill: #25343e"/>
          <polygon points="81.22 136.49 81.22 153.45 87.07 153.23 87.07 135.72 81.22 136.49" style="fill: #152830"/>
          <polygon points="84.72 128.35 65.23 131.72 73.44 132.75 93.13 129.62 84.72 128.35" style="fill: #25343e"/>
          <polygon points="89.75 127.49 84.72 126.67 84.72 128.35 89.75 129.1 89.75 127.49" style="fill: #cbd2de"/>
          <polygon points="65.23 130.22 84.72 126.67 84.72 128.35 65.23 131.72 65.23 130.22" style="fill: #f0f1f7"/>
          <polygon points="70.87 157.15 89.32 156.85 89.32 153.47 70.85 154.13 70.87 157.15" style="fill: #f0f1f7"/>
          <polygon points="89.32 153.47 89.32 156.85 85.92 156.79 85.92 160.2 93.13 160.2 93.13 156.91 93.13 153.6 89.32 153.47" style="fill: #cbd2de"/>
          <polygon points="67.91 157.15 85.92 156.79 85.92 160.2 67.91 160.2 67.91 157.15" style="fill: #f0f1f7"/>
          <g>
            <path d="M89.42,145.38a.78.78,0,1,1-.78-.78A.77.77,0,0,1,89.42,145.38Z" style="fill: #cbd2de"/>
            <path d="M86.9,145.56a.78.78,0,1,1-.78-.78A.78.78,0,0,1,86.9,145.56Z" style="fill: #cbd2de"/>
          </g>
          <path d="M126.85,144.27l7.64.74v-9.79L126.85,134Zm-12-1.16,9.38.91V133.59l-9.38-1.5Zm-14.26-1.37,11.17,1.07v-11.2l-11.17-1.78Z" style="fill: url(#d)"/>
          <path d="M57.91,135.22V145l12-1.16V133.31Z" style="fill: url(#e)"/>
          <polygon points="137.07 126.02 137.07 154.89 112.62 154.03 125.79 123.52 137.07 126.02" style="fill: #404041;opacity: 0.1"/>
          <polygon points="55.33 126 76.24 121.71 55.33 154.89 55.33 126" style="fill: #fff;opacity: 0.2"/>
          <polygon points="73.45 132.75 80.39 133.59 80.39 145.19 73.45 132.75" style="fill: #404041;opacity: 0.1"/>
        </g>
        <g>
          <polygon points="134.41 118.92 130.27 124.18 131.35 123.96 130.9 125.27 126.52 129.48 128.93 129.5 126.74 132.65 124.19 134.78 126.47 136.27 121.02 140.71 125.93 142.29 118.85 147.65 123.52 149.81 117.21 154.56 122.01 154.52 123.25 155.09 130.36 156.46 142.57 155.62 151.83 152.84 145.79 151.02 148.47 149.81 142.44 143.65 144.85 143.2 141.36 137.06 144.72 135.79 140.31 132.03 143.6 131.02 138.84 128.29 140.56 127.57 137.47 124.33 138.41 123.21 134.41 118.92" style="fill: #33884d"/>
          <polygon points="135.6 160.2 131.69 160.2 132.51 155.12 135.19 155.12 135.22 157.36 135.6 160.2" style="fill: #493b34"/>
          <polygon points="130.36 156.46 142.57 155.62 151.83 152.84 145.79 151.02 148.47 149.81 142.44 143.65 144.85 143.2 141.36 137.06 143.9 136.1 140.31 132.03 140.87 131.02 138.84 128.29 140.56 127.57 137.47 124.33 138.41 123.21 134.7 119.38 135.06 122.73 133.18 123.82 136 124.91 135.73 128.41 132.69 129.38 136 132.52 133.65 137.06 140.2 141.15 138.93 142.44 133.7 144.05 137.46 149.1 141.36 151.69 123.08 155.04 123.25 155.09 130.36 156.46" style="fill: #334f2c;opacity: 0.5"/>
          <g style="opacity: 0.2">
            <polygon points="125.93 142.29 118.85 147.65 133.7 144.05 127.25 143.47 125.93 142.29" style="fill: #f9fd6f;opacity: 0.5"/>
            <polygon points="126.47 136.27 121.02 140.71 125.93 142.29 128.91 136.71 126.47 136.27" style="fill: #f9fd6f;opacity: 0.5"/>
            <polygon points="124.19 134.78 125.08 135.36 131.61 131.02 127.98 130.87 126.74 132.65 124.19 134.78" style="fill: #f9fd6f;opacity: 0.5"/>
            <polygon points="123.52 149.81 117.21 154.56 129.7 150.18 123.52 149.81" style="fill: #f9fd6f;opacity: 0.5"/>
            <polygon points="131 124.97 130.9 125.27 126.52 129.48 127.25 129.49 132.89 124.97 131 124.97" style="fill: #f9fd6f;opacity: 0.5"/>
            <polygon points="130.96 124.04 133.22 122.23 134.41 118.92 130.27 124.18 130.96 124.04" style="fill: #f9fd6f;opacity: 0.5"/>
          </g>
          <polygon points="132.5 160.2 132.89 155.12 132.51 155.12 131.69 160.2 132.5 160.2" style="fill: #a86f41;opacity: 0.5"/>
          <g style="opacity: 0.2">
            <polygon points="128.18 135.93 129.64 134.8 129.64 135.78 128.18 135.93" style="fill: #f9fd6f;opacity: 0.5"/>
            <polygon points="135.81 135.36 137.28 134.23 137.28 135.21 135.81 135.36" style="fill: #f9fd6f;opacity: 0.5"/>
            <polygon points="131.91 128.06 131.91 129.09 132.67 128.57 131.91 128.06" style="fill: #f9fd6f;opacity: 0.5"/>
            <polygon points="127.25 141.15 128.91 141.15 128.91 139.85 127.25 141.15" style="fill: #f9fd6f;opacity: 0.5"/>
            <polygon points="135.39 123.72 137.05 123.72 137.05 122.42 135.39 123.72" style="fill: #f9fd6f;opacity: 0.5"/>
            <polygon points="139.55 139.06 141.21 139.06 141.21 137.76 139.55 139.06" style="fill: #f9fd6f;opacity: 0.5"/>
            <polygon points="127.34 149.16 125.71 147.73 124.92 148.78 127.34 149.16" style="fill: #f9fd6f;opacity: 0.5"/>
            <polygon points="128.37 152.19 127.47 153.61 126.13 153.61 128.37 152.19" style="fill: #f9fd6f;opacity: 0.5"/>
            <polygon points="131.09 129.12 130.22 129.87 129.46 129.12 131.09 129.12" style="fill: #f9fd6f;opacity: 0.5"/>
            <polygon points="131.74 142.19 133.2 141.82 131.38 141.07 131.74 142.19" style="fill: #f9fd6f;opacity: 0.5"/>
          </g>
          <g style="opacity: 0.5">
            <polygon points="146.01 149.7 144.4 149.7 146.01 150.69 146.01 149.7" style="fill: #334f2c;opacity: 0.5"/>
            <polygon points="137.83 144.97 136.22 144.97 137.83 145.96 137.83 144.97" style="fill: #334f2c;opacity: 0.5"/>
            <polygon points="141.18 153.83 139.57 153.83 141.18 154.82 141.18 153.83" style="fill: #334f2c;opacity: 0.5"/>
            <polygon points="141.36 142.29 139.4 142.78 141.36 143.56 141.36 142.29" style="fill: #334f2c;opacity: 0.5"/>
            <polygon points="135.64 137.06 137.46 137.56 136 138.41 135.64 137.06" style="fill: #334f2c;opacity: 0.5"/>
            <polygon points="137.02 125.47 138.84 125.97 137.38 126.82 137.02 125.47" style="fill: #334f2c;opacity: 0.5"/>
            <polygon points="138.89 133.11 137.93 133.11 138.89 134.03 138.89 133.11" style="fill: #334f2c;opacity: 0.5"/>
          </g>
        </g>
      </g>
      <rect width="200" height="200" style="fill: none"/>
    </g>
  </g>
</svg>
