<svg xmlns="http://www.w3.org/2000/svg" width="200" height="200" viewBox="0 0 200 200">
  <g style="isolation: isolate">
    <g>
      <circle cx="100" cy="100" r="100" style="fill: #68b44e"/>
      <g>
        <path d="M30.32,163.42c4.81,1.64,53.76,12.91,69.1,15.41,22.77,3.72,56.06-9.47,69.06-14.74s3.64-6.7-4.55-8.91-69.82-3.43-69.82-3.43S26.47,154.12,25,157.18,25.5,161.77,30.32,163.42Z" style="fill: #e7ebee;mix-blend-mode: multiply"/>
        <path d="M32.43,158.53C37.8,160.48,73.14,170,86.7,172.47s50.24-5.24,61.75-9.13,3.84-5.7-3.94-7.53c-7.55-1.77-56.39-3.93-56.39-3.93s-64.91-1.87-66.26.6S27.05,156.59,32.43,158.53Z" style="fill: #e7ebee;mix-blend-mode: multiply"/>
      </g>
      <g style="opacity: 0.2">
        <path d="M126.7,87.92c-1.29,0-2.55.07-3.78.08-.89,3.44-13.13,6.6-28.15,7.16-15.61.58-28.28-1.86-28.31-5.47,0-2.06,4.14-4,10.63-5.49-6.37-.57-10.68-2-10.7-3.77,0-2.62,9.19-5.09,20.57-5.52,9.25-.34,17.09.77,19.71,2.61a94.81,94.81,0,0,1,19.94-2.64c15.62-.59,28.29,1.87,28.32,5.47S142.31,87.34,126.7,87.92Z" style="fill: #fff;opacity: 0.5"/>
        <path d="M90.07,53.11c-1.63-.06-3.22-.09-4.78-.1-1.14-3.73-16.62-7.23-35.63-7.93-19.77-.74-35.8,1.82-35.83,5.7,0,2.23,5.25,4.41,13.46,6-8,.57-13.51,2.05-13.53,4,0,2.84,11.64,5.57,26,6.1,11.7.44,21.62-.71,24.93-2.68A139.46,139.46,0,0,0,90,67.2c19.76.73,35.8-1.82,35.83-5.71S109.83,53.85,90.07,53.11Z" style="fill: #fff;opacity: 0.30000000000000004"/>
        <path d="M28.46,77.5c4.14,3.63,30.8,6.15,59.55,5.62,16.49-.3,30.05-1.54,37.87-3.22,8.15,1.36,21.75,2.14,36.06,1.87,21-.38,35.51-2.83,32.48-5.48-2.44-2.15-15.75-3.77-31.9-4.09,8-1.36,12-3.11,9.94-4.92-4.15-3.64-30.82-6.15-59.57-5.63s-48.72,3.9-44.58,7.53a6.78,6.78,0,0,0,1.51.87C42.82,70.76,24.48,74,28.46,77.5Z" style="fill: #fff;opacity: 0.7000000000000001"/>
      </g>
      <g style="opacity: 0.4">
        <path d="M92,37.86a26.51,26.51,0,1,1-26.5-26.5A26.5,26.5,0,0,1,92,37.86Z" style="fill: #fffdeb;opacity: 0.2"/>
        <circle cx="65.52" cy="37.86" r="18.73" transform="translate(13.46 92.78) rotate(-76.55)" style="fill: #fffdeb;opacity: 0.5"/>
        <path d="M72.94,37.56a7.43,7.43,0,1,1-7.73-7.12A7.43,7.43,0,0,1,72.94,37.56Z" style="fill: #fff"/>
      </g>
      <g>
        <g>
          <path d="M144.59,76.41v74.92H82.23V76.41c0-3.9,14-7,31.18-7S144.59,72.51,144.59,76.41Z" style="fill: #33884d"/>
          <path d="M144.59,80.82v70.51H82.23V80.82c0-2.36,14-4.27,31.18-4.27S144.59,78.46,144.59,80.82Z" style="fill: #5b6f80"/>
          <path d="M87.48,74.23v77h9.87v-79C93.5,72.5,90.57,72.49,87.48,74.23Z" style="fill: #fff;opacity: 0.2"/>
          <path d="M123.48,72V151.2h13V73.61C132.62,72.49,128.35,72.21,123.48,72Z" style="fill: #070041;opacity: 0.1"/>
          <polygon points="141.01 142.3 138.41 141.53 138.41 74.32 141.01 75.09 141.01 142.3" style="fill: #070041;opacity: 0.1"/>
          <rect x="106.38" y="71.72" width="2.59" height="75.02" style="fill: #070041;opacity: 0.1"/>
          <rect x="82.23" y="146.73" width="62.37" height="4.59" style="fill: #30404b"/>
        </g>
        <g>
          <polygon points="66.28 99.56 14.43 127.15 118.14 127.15 66.28 99.56" style="fill: #33884d"/>
          <polygon points="66.28 99.56 87.05 127.15 106.91 127.15 66.28 99.56" style="fill: #110f3f;opacity: 0.30000000000000004"/>
          <polygon points="66.28 99.56 49.91 127.15 34.25 127.15 66.28 99.56" style="fill: #fff;opacity: 0.30000000000000004"/>
          <polygon points="66.28 99.56 43.38 127.15 21.48 127.15 66.28 99.56" style="fill: #fff;opacity: 0.30000000000000004"/>
          <path d="M118.87,126.56v30.35H14.43V126.56c0-1.94,23.37-3.5,52.21-3.5S118.87,124.62,118.87,126.56Z" style="fill: #33884d"/>
          <path d="M118.87,130.13V160.2H14.43V130.13c0-1.11,23.37-2,52.21-2S118.87,129,118.87,130.13Z" style="fill: #eaebf1"/>
          <path d="M18,126.4a11,11,0,0,0,3,.09c9.46-1,27-1.67,45.65-1.67s36.2.64,45.66,1.67a11,11,0,0,0,3-.09c.72-.17.65-.4-.18-.54-7.68-1.37-26.73-2.25-48.51-2.25s-40.82.88-48.51,2.25C17.3,126,17.24,126.23,18,126.4Z" style="fill: #fff;opacity: 0.4"/>
          <path d="M24.84,126.13V160.2H46.16v-35.1C37.84,125.31,30.45,125.67,24.84,126.13Z" style="fill: #fff;opacity: 0.30000000000000004"/>
          <path d="M83.51,125.13v35.06h21.71V125.9C99.05,125.57,91.67,125.31,83.51,125.13Z" style="fill: #070041;opacity: 0.1"/>
          <rect x="69.83" y="125.3" width="4.34" height="19.28" style="fill: #070041;opacity: 0.1"/>
          <rect x="24.22" y="127.24" width="4.34" height="19.29" style="fill: #070041;opacity: 0.1"/>
          <rect x="14.43" y="156.91" width="104.44" height="3.29" style="fill: #8d9fac"/>
        </g>
        <g>
          <g>
            <rect x="141.28" y="66.61" width="2.51" height="74.8" style="fill: #cbd2de"/>
            <rect x="143.79" y="66.61" width="2.51" height="74.8" style="fill: #b3bdcc"/>
          </g>
          <g>
            <rect x="170.29" y="84.9" width="2.42" height="45.91" style="fill: #b3bdcc"/>
            <rect x="167.88" y="84.9" width="2.41" height="45.91" style="fill: #cbd2de"/>
          </g>
          <g style="opacity: 0.2">
            <path d="M137.75,52.37a1.55,1.55,0,1,0,1.54,1.55A1.54,1.54,0,0,0,137.75,52.37Z" style="fill: #fff;fill-rule: evenodd"/>
            <path d="M144.05,60.26a2.14,2.14,0,0,0,0,4.27,2.14,2.14,0,1,0,0-4.27Z" style="fill: #fff;fill-rule: evenodd"/>
            <path d="M140.1,58a1.1,1.1,0,1,0,1.1,1.1A1.09,1.09,0,0,0,140.1,58Z" style="fill: #fff;fill-rule: evenodd"/>
            <path d="M159,41a1.52,1.52,0,0,0-1.19.6,5.21,5.21,0,0,0-5.19-4.95A4.9,4.9,0,0,0,151,37a5.38,5.38,0,0,0-4.14-2.37A6.14,6.14,0,1,0,135,37.88a2.52,2.52,0,0,0-1.69,2.37,2.49,2.49,0,0,0,2.48,2.48,2.52,2.52,0,0,0,2.3-1.46,6.11,6.11,0,0,0,2.66.61,5.49,5.49,0,0,0,.58,0,5.32,5.32,0,0,0,.45.93,4.88,4.88,0,0,0-3.63,3,3.34,3.34,0,1,0-.2,3.06,4.91,4.91,0,0,0,4.72,3.61,4,4,0,0,0,.49,0,4.06,4.06,0,0,0,.44,1.38,3.33,3.33,0,1,0,5.21,2.75,3.82,3.82,0,0,0-.07-.68,4.28,4.28,0,0,0,2.51-2.32,2.44,2.44,0,0,0,1.54.56,2.54,2.54,0,0,0,2.52-2.52,2.5,2.5,0,0,0-2.52-2.48,2.45,2.45,0,0,0-1.7.67,4.22,4.22,0,0,0-3.59-2.21,4.86,4.86,0,0,0-.51-2.15,5.41,5.41,0,0,0,1.45-.36,5.18,5.18,0,0,0,9.11-1.73,1.55,1.55,0,0,0,2.93-.69A1.59,1.59,0,0,0,159,41Z" style="fill: #fff;fill-rule: evenodd"/>
            <path d="M151.9,56.15a1.08,1.08,0,1,0,1.1,1.06A1.09,1.09,0,0,0,151.9,56.15Z" style="fill: #fff;fill-rule: evenodd"/>
            <path d="M129.73,36.23a2.13,2.13,0,0,0-2.15,2.11,2.14,2.14,0,1,0,4.27,0A2.13,2.13,0,0,0,129.73,36.23Z" style="fill: #fff;fill-rule: evenodd"/>
            <path d="M152.83,35.17a1.55,1.55,0,1,0,0-3.09,1.55,1.55,0,0,0,0,3.09Z" style="fill: #fff;fill-rule: evenodd"/>
            <path d="M146.69,27.16a1.08,1.08,0,1,0,0-2.16,1.08,1.08,0,0,0,0,2.16Z" style="fill: #fff;fill-rule: evenodd"/>
            <path d="M141.81,64.9a.82.82,0,0,0-.81.85.83.83,0,1,0,1.66,0A.83.83,0,0,0,141.81,64.9Z" style="fill: #fff;fill-rule: evenodd"/>
          </g>
          <g>
            <polygon points="181.19 160.2 153.01 160.2 153.01 124.94 182.22 130.16 182.22 158.59 181.19 158.57 181.19 160.2" style="fill: #cbd2de"/>
            <polygon points="112.8 136.2 112.8 157.42 113.83 157.4 113.83 160.2 153.01 160.2 153.01 124.94 112.8 136.2" style="fill: #f0f1f7"/>
            <g>
              <polygon points="181.19 160.2 153.01 160.2 153.01 156.32 181.19 157.68 181.19 160.2" style="fill: #485967"/>
              <polygon points="153.01 156.32 181.19 157.68 181.19 158.87 153.01 157.82 153.01 156.32" style="fill: #010101;opacity: 0.2"/>
              <polygon points="153.01 156.32 113.83 157.4 113.83 160.2 153.01 160.2 153.01 156.32" style="fill: #30404b"/>
              <polygon points="153.01 157.82 113.83 158.87 113.83 157.4 153.01 156.32 153.01 157.82" style="fill: #010101;opacity: 0.2"/>
            </g>
            <g>
              <g>
                <polygon points="122.2 151.78 116.43 152.07 116.43 143.67 122.2 143.03 122.2 151.78" style="fill: #f0f1f7"/>
                <polygon points="133.36 151.18 126.8 151.51 126.8 142.53 133.36 141.81 133.36 151.18" style="fill: #f0f1f7"/>
                <polygon points="146.4 150.48 138.85 150.86 138.85 141.2 146.4 140.37 146.4 150.48" style="fill: #f0f1f7"/>
                <polygon points="159.62 150.48 167.18 150.86 167.18 141.2 159.62 140.37 159.62 150.48" style="fill: #f0f1f7"/>
              </g>
              <g>
                <polygon points="166.41 141.79 167.18 141.2 159.62 140.37 159.62 141.07 166.41 141.79" style="fill: #5b6f80"/>
                <polygon points="146.4 140.37 146.4 141.07 139.62 141.79 138.85 141.2 146.4 140.37" style="fill: #5b6f80"/>
                <polygon points="126.8 142.53 127.57 143.11 133.36 142.5 133.36 141.81 126.8 142.53" style="fill: #5b6f80"/>
                <polygon points="116.43 143.67 117.21 144.26 122.2 143.73 122.2 143.03 116.43 143.67" style="fill: #5b6f80"/>
              </g>
              <g style="opacity: 0.6000000000000001">
                <polygon points="117.21 144.26 117.21 152.03 122.2 151.78 122.2 143.73 117.21 144.26" style="fill: #30404b"/>
                <polygon points="127.57 143.11 127.57 151.47 133.36 151.18 133.36 142.5 127.57 143.11" style="fill: #30404b"/>
                <polygon points="139.62 141.79 139.62 150.82 146.4 150.48 146.4 141.07 139.62 141.79" style="fill: #30404b"/>
                <polygon points="159.62 150.48 166.41 150.82 166.41 141.79 159.62 141.07 159.62 150.48" style="fill: #30404b"/>
              </g>
            </g>
            <polygon points="181.19 160.2 153.01 160.2 182.22 130.16 182.22 158.59 181.19 158.57 181.19 160.2" style="fill: #070041;opacity: 0.1"/>
            <polygon points="112.8 136.2 112.8 157.42 113.83 157.4 153.01 124.94 112.8 136.2" style="fill: #fff;opacity: 0.2"/>
          </g>
        </g>
        <g>
          <path d="M96.35,146.66a6.39,6.39,0,0,1-3.25-10.09,8.09,8.09,0,0,1,4.51-10.25,7.78,7.78,0,0,1,2.9-.56,8,8,0,0,1,15.14-5.25,8.26,8.26,0,0,1,.33,5.2s0,0,0,0a8.16,8.16,0,0,1,9.23,5,9.2,9.2,0,0,1,.48,1.74,3.41,3.41,0,0,1-.55,5.71,6.34,6.34,0,0,1-11.29,5.23,5.12,5.12,0,0,1-4.15,1,7.83,7.83,0,0,1-8,4.3,2.88,2.88,0,0,1-5.42,0A2.8,2.8,0,0,1,96.35,146.66Z" style="fill: #8bc444"/>
          <path d="M108.8,149.52a21,21,0,0,1,0-2.47c-2.28-.78-3.6-7.09-3.6-7.09,1.72,3.69,3.09,5.58,3.81,5.77.08-.79.18-2.67.22-3.46s.08-1.36.17-1.91c.15-.86-.29-4.74.1-5.1,0,0,.71,5.67,1,5a24.8,24.8,0,0,1,2.57-3.94c.14-.21-2.57,5.53-2.54,5.86.11,1.29.26,3.16.44,5.88a21.49,21.49,0,0,0,2.86-2c-.5-1.68,1.08-5,1.08-5,0,1.77-.72,4.13-.4,4.35.69-.82,4.17-3.43,5-4.5,0,0-4.87,6.4-8.41,8.87.16,2.07.23,5.49.31,6.15.18,1.39.46,3,.74,4.2h-4.13a17.2,17.2,0,0,0,.23-1.81c0-1.28.07-5.78.22-6.68-5.15-2.55-9.47-8.71-9.47-8.71C102.75,146.61,107.26,149.4,108.8,149.52Z" style="fill: #4d3a30"/>
          <path d="M107.14,117.72c-3.76.49-4.9,1.69-6.73,3.63a7.94,7.94,0,0,1,4.74-5.48,8.11,8.11,0,0,1,10.5,4.64,8.26,8.26,0,0,1,.33,5.2s0,0,0,0a8.16,8.16,0,0,1,9.23,5,7.75,7.75,0,0,1,.35,1.13c-5.08-5.8-15.27-2.13-13.32-3.63C116.49,125,114.25,116.8,107.14,117.72Z" style="fill: #f9fd6f;opacity: 0.5"/>
          <path d="M102.2,127.44a19.37,19.37,0,0,0-5.94,1.4c-.75.35-2.42,1.43-2.94,1.64a7.86,7.86,0,0,1,7.19-4.72S104.53,127.22,102.2,127.44Z" style="fill: #f9fd6f;opacity: 0.5"/>
          <path d="M116.54,131.19a1.1,1.1,0,1,0,1.1-1.11A1.1,1.1,0,0,0,116.54,131.19Z" style="fill: #f9fd6f;opacity: 0.5"/>
          <path d="M118.17,133.6a1.8,1.8,0,1,0,1.8-1.8A1.8,1.8,0,0,0,118.17,133.6Z" style="fill: #f9fd6f;opacity: 0.5"/>
          <path d="M119.45,130.48a.52.52,0,1,0,1,0,.52.52,0,1,0-1,0Z" style="fill: #f9fd6f;opacity: 0.5"/>
          <g style="opacity: 0.5">
            <path d="M92.13,142.73a6.41,6.41,0,0,1,1-6.16,5.16,5.16,0,0,0,3.42.11s-.94,5.51,4.57,6.89c5.08,1.26,8.22-5.54,8.22-5.54a18,18,0,0,0,10.21,2.28c2.73-.24,2.76-3.26,4-5.05s.8,1.42,2.2,1l1.28-.46a3.19,3.19,0,0,1-.21.73,3.35,3.35,0,0,1-1.59,1.72,6.34,6.34,0,0,1-11.29,5.23,5.12,5.12,0,0,1-4.15,1,7.83,7.83,0,0,1-8,4.3,2.88,2.88,0,0,1-5.42,0,2.8,2.8,0,0,1,0-2.11A6.4,6.4,0,0,1,92.13,142.73Z" style="fill: #34651c"/>
            <path d="M97.32,138.14a1.74,1.74,0,1,0,1.73-1.74A1.74,1.74,0,0,0,97.32,138.14Z" style="fill: #34651c"/>
            <path d="M95.75,133.84a1.1,1.1,0,1,0,1.1-1.11A1.1,1.1,0,0,0,95.75,133.84Z" style="fill: #34651c"/>
            <path d="M98,135.34a.81.81,0,1,0,.81-.81A.81.81,0,0,0,98,135.34Z" style="fill: #34651c"/>
            <path d="M108.14,120.16a1.17,1.17,0,1,0,1.17-1.16A1.17,1.17,0,0,0,108.14,120.16Z" style="fill: #34651c"/>
            <path d="M110.55,122.52a.94.94,0,1,0,.94-.94A.94.94,0,0,0,110.55,122.52Z" style="fill: #34651c"/>
          </g>
          <path d="M110.77,150.69v-.77l.39.09c.16,2.09.22,5.35.3,6,.18,1.39.46,3,.74,4.2h-.91l-.52-2.94Z" style="fill: #be6d2b;opacity: 0.5"/>
          <path d="M115.44,143.23a1.1,1.1,0,1,0,1.1-1.1A1.1,1.1,0,0,0,115.44,143.23Z" style="fill: #8ac041"/>
          <path d="M114.42,141.46a.71.71,0,0,0,1.42,0,.71.71,0,1,0-1.42,0Z" style="fill: #8ac041"/>
        </g>
        <g>
          <polygon points="86.92 106.59 91.8 113.42 90.53 113.13 91.06 114.83 96.23 120.31 93.38 120.33 95.97 124.41 98.98 127.19 96.29 129.12 102.72 134.89 96.92 136.94 105.28 143.9 99.77 146.71 107.21 152.87 101.55 152.82 100.09 153.56 91.7 155.35 77.29 154.25 66.37 150.63 73.49 148.28 70.32 146.71 77.45 138.7 74.6 138.12 78.72 130.14 74.76 128.5 79.96 123.62 76.08 122.3 81.7 118.76 79.67 117.82 83.31 113.62 82.2 112.16 86.92 106.59" style="fill: #33884d"/>
          <polygon points="85.51 160.2 90.12 160.2 89.16 153.6 86 153.6 85.96 156.51 85.51 160.2" style="fill: #4d3a30"/>
          <polygon points="91.7 155.35 77.29 154.25 66.37 150.63 73.49 148.28 70.32 146.71 77.45 138.7 74.6 138.12 78.72 130.14 75.72 128.9 79.96 123.62 79.29 122.3 81.7 118.76 79.67 117.82 83.31 113.62 82.2 112.16 86.57 107.19 86.16 111.54 88.37 112.95 85.05 114.37 85.36 118.92 88.95 120.17 85.05 124.26 87.82 130.14 80.09 135.46 81.58 137.13 87.75 139.22 83.33 145.79 78.72 149.16 100.28 153.5 100.09 153.56 91.7 155.35" style="fill: #334f2c;opacity: 0.5"/>
          <g style="opacity: 0.2">
            <polygon points="96.92 136.94 105.28 143.9 87.75 139.22 95.37 138.47 96.92 136.94" style="fill: #f9fd6f"/>
            <polygon points="96.29 129.12 102.72 134.89 96.92 136.94 93.41 129.69 96.29 129.12" style="fill: #f9fd6f"/>
            <polygon points="98.98 127.19 97.93 127.94 90.22 122.3 94.5 122.1 95.97 124.41 98.98 127.19" style="fill: #f9fd6f"/>
            <polygon points="99.77 146.71 107.21 152.87 92.47 147.18 99.77 146.71" style="fill: #f9fd6f"/>
            <polygon points="90.94 114.45 91.06 114.83 96.23 120.31 95.37 120.32 88.72 114.45 90.94 114.45" style="fill: #f9fd6f"/>
            <polygon points="91 113.24 88.32 110.89 86.92 106.59 91.8 113.42 91 113.24" style="fill: #f9fd6f"/>
          </g>
          <polygon points="89.18 160.2 88.72 153.6 89.16 153.6 90.12 160.2 89.18 160.2" style="fill: #be6d2b;opacity: 0.5"/>
          <g style="opacity: 0.2">
            <polygon points="94.28 128.68 92.55 127.21 92.55 128.48 94.28 128.68" style="fill: #f9fd6f"/>
            <polygon points="85.26 127.94 83.53 126.47 83.53 127.75 85.26 127.94" style="fill: #f9fd6f"/>
            <polygon points="89.87 118.46 89.87 119.79 88.97 119.13 89.87 118.46" style="fill: #f9fd6f"/>
            <polygon points="95.37 135.46 93.41 135.46 93.41 133.77 95.37 135.46" style="fill: #f9fd6f"/>
            <polygon points="85.76 112.83 83.8 112.83 83.8 111.14 85.76 112.83" style="fill: #f9fd6f"/>
            <polygon points="80.86 132.74 78.9 132.74 78.9 131.05 80.86 132.74" style="fill: #f9fd6f"/>
            <polygon points="95.26 145.86 97.18 144.01 98.12 145.37 95.26 145.86" style="fill: #f9fd6f"/>
            <polygon points="94.05 149.79 95.11 151.64 96.69 151.64 94.05 149.79" style="fill: #f9fd6f"/>
            <polygon points="90.84 119.83 91.87 120.8 92.76 119.83 90.84 119.83" style="fill: #f9fd6f"/>
            <polygon points="90.07 136.82 88.35 136.33 90.49 135.35 90.07 136.82" style="fill: #f9fd6f"/>
          </g>
          <g style="opacity: 0.5">
            <polygon points="73.23 146.56 75.13 146.56 73.23 147.85 73.23 146.56" style="fill: #334f2c"/>
            <polygon points="82.89 140.42 84.78 140.42 82.89 141.7 82.89 140.42" style="fill: #334f2c"/>
            <polygon points="78.93 151.93 80.83 151.93 78.93 153.21 78.93 151.93" style="fill: #334f2c"/>
            <polygon points="78.72 136.94 81.04 137.58 78.72 138.59 78.72 136.94" style="fill: #334f2c"/>
            <polygon points="85.47 130.14 83.33 130.79 85.05 131.9 85.47 130.14" style="fill: #334f2c"/>
            <polygon points="83.83 115.09 81.69 115.74 83.41 116.85 83.83 115.09" style="fill: #334f2c"/>
            <polygon points="81.63 125.02 82.76 125.02 81.63 126.21 81.63 125.02" style="fill: #334f2c"/>
          </g>
        </g>
        <g>
          <path d="M25.44,150.41a2.81,2.81,0,0,1,3-.48,5.41,5.41,0,0,1,4.45-4,5.63,5.63,0,0,1-1-3.36,5.38,5.38,0,0,1,10.75-.21,5.31,5.31,0,0,1,2-.32,5.43,5.43,0,0,1,5.22,5.66,5.51,5.51,0,0,1-.34,1.77,5.52,5.52,0,0,1,.7,2.86,5.44,5.44,0,0,1-5.53,5.36,5.28,5.28,0,0,1-2.56-.75.86.86,0,0,1-.13.14,3.39,3.39,0,0,1-4.8-.21,3.45,3.45,0,0,1-.59-.89,5.28,5.28,0,0,1-3.1.91,5.17,5.17,0,0,1-1.9-.42,2,2,0,0,1-3.5.88,2.13,2.13,0,0,1-.47-2.06,2.9,2.9,0,0,1-2.29-.92A2.84,2.84,0,0,1,25.44,150.41Z" style="fill: #8bc444"/>
          <g>
            <path d="M38.49,159.16c0,.41,0,.74,0,1H35.12a51.07,51.07,0,0,1-5.7-5.37c.69.76,3.64,2.63,4.23,3.21.27-.15-.31-1.84-.35-3.11,0,0,1.34,2.35.93,3.55a17.85,17.85,0,0,0,2.41,1.44c.15-1.95.28-3.29.38-4.21,0-.24-2.28-4.34-2.16-4.19A16.77,16.77,0,0,1,37,154.34c.25.45.86-3.61.86-3.61.32.26,0,3,.08,3.65.07.39.11.86.15,1.36s.11,1.91.18,2.48c.61-.14,1.77-1.49,3.22-4.13C41.53,154.09,40.42,158.6,38.49,159.16Z" style="fill: #504943"/>
            <path d="M38.92,160.2H37.39c1.74-.82,7.34-2.25,9.38-3.93C46.77,156.27,46,158.31,38.92,160.2Z" style="fill: #504943"/>
          </g>
          <path d="M35.66,140.61a1,1,0,1,0,1-1A1,1,0,0,0,35.66,140.61Z" style="fill: #f9fd6f;opacity: 0.5"/>
          <path d="M38,140.13a.47.47,0,1,0,.94,0,.47.47,0,1,0-.94,0Z" style="fill: #f9fd6f;opacity: 0.5"/>
          <circle cx="27.48" cy="150.73" r="0.47" style="fill: #f9fd6f;opacity: 0.5"/>
          <g style="opacity: 0.5">
            <path d="M44.68,157.73a5.28,5.28,0,0,1-2.56-.75.86.86,0,0,1-.13.14,3.39,3.39,0,0,1-4.8-.21,3.45,3.45,0,0,1-.59-.89,5.28,5.28,0,0,1-3.1.91,5.17,5.17,0,0,1-1.9-.42,2,2,0,0,1-3.5.88,2.13,2.13,0,0,1-.47-2.06,2.9,2.9,0,0,1-2.29-.92A2.84,2.84,0,0,1,25,150.9a6.81,6.81,0,0,0,1.39,2.34c1,.8,2-1,3-2s1.42.09,2.77.77,2.67-.54,4.71-1.19,5.58,2.24,6.74,2.63,2.88,1.44,5,.48a4.41,4.41,0,0,0,1.54-1.17A5.43,5.43,0,0,1,44.68,157.73Z" style="fill: #34651c"/>
            <path d="M32.74,150.53a1.15,1.15,0,1,0,1.15-1.16A1.15,1.15,0,0,0,32.74,150.53Z" style="fill: #34651c"/>
            <circle cx="46.77" cy="149.21" r="0.97" style="fill: #34651c"/>
            <path d="M31.33,150.18a.53.53,0,1,0,.53-.53A.53.53,0,0,0,31.33,150.18Z" style="fill: #34651c"/>
            <path d="M48.18,149.12a.53.53,0,1,0,.53-.52A.53.53,0,0,0,48.18,149.12Z" style="fill: #34651c"/>
            <path d="M45.25,147.64a.54.54,0,1,0,.54-.54A.54.54,0,0,0,45.25,147.64Z" style="fill: #34651c"/>
          </g>
          <path d="M37.46,137.25a5.43,5.43,0,0,1,5.21,5.15,5.3,5.3,0,0,1,6.63,2.75c-2.32-1.73-5.95-1.24-7.71-.85a.34.34,0,0,1-.33-.55l.55-.64a.6.6,0,0,0,.06-.7c-.78-1.31-3.71-5.35-8.95-2.84A5.33,5.33,0,0,1,37.46,137.25Z" style="fill: #f9fd6f;opacity: 0.5"/>
          <path d="M32.92,146a11,11,0,0,1,5.09,2,20,20,0,0,0-6.49-.66,8.29,8.29,0,0,0-1.84.46A5.31,5.31,0,0,1,32.93,146Z" style="fill: #f9fd6f;opacity: 0.5"/>
          <path d="M38.79,153.5a1,1,0,1,0,1-1A1,1,0,0,0,38.79,153.5Z" style="fill: #8bc444"/>
          <path d="M38.48,151.81a.47.47,0,1,0,.47-.47A.47.47,0,0,0,38.48,151.81Z" style="fill: #8bc444"/>
        </g>
      </g>
      <rect width="200" height="200" style="fill: none"/>
    </g>
  </g>
</svg>
